<?xml version="1.0" standalone="no"?>
<!DOCTYPE svg PUBLIC "-//W3C//DTD SVG 20010904//EN"
 "http://www.w3.org/TR/2001/REC-SVG-20010904/DTD/svg10.dtd">
<svg version="1.0" xmlns="http://www.w3.org/2000/svg"
 width="300.000000pt" height="300.000000pt" viewBox="0 0 300.000000 300.000000"
 preserveAspectRatio="xMidYMid meet">
<metadata>
Created by potrace 1.10, written by Peter Selinger 2001-2011
</metadata>
<g transform="translate(0.000000,300.000000) scale(0.100000,-0.100000)"
fill="#11a084" stroke="none">
<path d="M1478 2822 c-20 -22 -39 -49 -43 -61 -8 -27 -21 -19 -39 22 -13 31
-60 66 -72 54 -9 -9 28 -69 46 -75 13 -5 13 -3 0 14 -8 10 3 3 24 -16 58 -54
76 -97 76 -183 0 -41 -5 -78 -11 -84 -16 -16 -14 -135 2 -164 l14 -24 4 25 c8
50 17 -9 11 -72 -3 -34 -2 -91 2 -127 5 -44 4 -82 -4 -113 -11 -44 -28 -65
-28 -35 0 6 -5 91 -11 187 -6 96 -11 187 -10 203 0 15 -4 27 -9 27 -15 0 -11
53 5 74 20 26 19 81 -1 100 -17 17 -25 20 -23 9 2 -13 -13 -53 -20 -53 -12 0
-28 48 -20 62 6 9 9 6 9 -12 1 -24 1 -24 15 -6 18 24 19 58 3 74 -18 18 3 14
23 -4 22 -20 46 -9 28 12 -6 8 -19 14 -28 14 -12 0 -16 9 -16 32 0 17 -5 33
-12 35 -16 6 -46 -55 -38 -75 6 -15 8 -15 15 3 8 18 9 17 9 -7 1 -16 -3 -28
-9 -28 -5 0 -10 -7 -10 -15 0 -20 -10 -19 -25 1 -12 18 -75 30 -75 15 0 -12
35 -41 49 -41 7 0 9 5 5 13 -5 7 -1 7 10 -2 18 -15 39 -51 51 -89 7 -23 7 -24
-19 -6 -35 22 -45 11 -20 -23 23 -31 47 -43 38 -19 -4 12 -2 15 9 10 13 -5 29
20 32 48 0 3 3 9 7 13 3 4 5 -1 3 -12 -2 -10 -4 -28 -4 -41 -1 -13 -5 -21 -10
-17 -16 9 -20 -9 -11 -51 5 -22 6 -53 1 -70 l-8 -29 -7 28 c-3 15 -9 39 -12
54 -3 15 -23 44 -44 64 -28 26 -35 40 -27 48 7 7 7 18 -1 36 -14 31 -32 24
-32 -12 0 -21 -2 -24 -15 -13 -8 7 -15 24 -14 39 0 22 2 23 8 7 7 -18 8 -18
14 -3 7 19 -6 61 -22 71 -5 4 -14 -10 -20 -30 -9 -31 -7 -41 9 -64 17 -24 18
-29 4 -34 -9 -4 -13 -2 -8 5 5 8 -3 10 -25 7 -22 -3 -36 1 -48 14 -13 14 -18
16 -25 6 -11 -19 -10 -86 3 -110 9 -17 4 -15 -25 8 -34 27 -50 74 -26 74 6 0
10 -10 10 -22 0 -19 2 -20 10 -8 16 24 12 55 -11 84 -29 36 -42 21 -38 -42 3
-40 1 -49 -11 -45 -8 3 0 -4 18 -16 39 -25 40 -30 7 -23 -14 2 -25 0 -25 -6 0
-14 40 -42 60 -42 13 0 13 1 0 10 -13 8 -13 10 1 10 19 0 41 -23 64 -68 21
-43 13 -53 -11 -13 -17 29 -58 55 -98 63 -11 2 -24 17 -30 36 -11 33 -41 60
-53 48 -4 -3 -2 -22 4 -41 6 -20 7 -35 2 -35 -5 0 -9 7 -9 15 0 9 -7 30 -17
48 -16 31 -16 32 -26 9 -7 -15 -7 -30 1 -46 8 -19 8 -26 -1 -29 -6 -2 9 -4 33
-5 25 -1 58 -5 74 -8 l30 -6 -28 -15 c-25 -13 -30 -13 -45 1 -10 9 -28 16 -42
16 l-24 -1 28 -24 c27 -24 29 -24 65 -9 67 30 79 29 112 -6 17 -18 29 -39 26
-45 -2 -7 1 -21 8 -31 6 -11 17 -31 23 -45 l11 -26 -44 16 c-24 9 -44 22 -44
30 0 11 3 11 16 0 14 -12 16 -11 13 6 -4 21 -54 54 -64 43 -4 -3 1 -18 10 -32
l17 -25 -64 1 c-35 0 -81 -5 -102 -12 -25 -8 -41 -9 -48 -2 -19 19 -108 -22
-108 -50 0 -4 13 -8 30 -8 l30 0 -19 -31 c-19 -30 -18 -59 0 -59 5 0 8 3 8 8
-4 23 4 33 10 12 11 -37 4 -42 -36 -25 -19 8 -47 15 -61 15 l-25 0 23 -25 c14
-15 34 -25 49 -24 17 1 20 3 9 6 -27 7 -21 21 6 16 14 -3 33 -14 42 -24 17
-18 16 -19 -22 -19 -36 -1 -38 -2 -20 -15 11 -8 31 -15 45 -14 23 0 23 1 7 8
-17 7 -18 8 -3 14 25 9 72 -35 85 -81 7 -22 19 -43 28 -46 8 -3 13 -2 10 3 -3
5 1 14 9 21 8 7 15 26 15 43 0 48 17 19 23 -40 6 -49 -3 -68 -18 -42 -4 6 -13
8 -20 5 -7 -2 -36 6 -64 20 -29 13 -49 19 -46 14 9 -15 62 -40 139 -66 84 -29
176 -67 176 -74 0 -3 -15 -5 -32 -6 -18 0 -62 -1 -98 -3 -36 -1 -74 -2 -85 -1
-32 1 -100 44 -103 65 -4 20 -4 20 12 0 15 -20 15 -19 16 6 0 27 -35 73 -50
64 -5 -3 -7 -20 -4 -38 l6 -32 -22 25 c-11 14 -30 42 -41 63 -10 20 -22 37
-24 37 -12 0 39 -84 73 -122 34 -37 35 -40 12 -32 -32 11 -109 9 -121 -3 -7
-7 -1 -16 14 -26 38 -25 73 -30 99 -16 l23 13 -30 6 -30 6 37 5 c24 3 49 -1
70 -13 l33 -17 -30 -1 c-41 0 -104 -38 -84 -51 24 -15 76 -10 100 11 l24 20
-35 -5 c-32 -5 -33 -5 -10 6 14 6 88 12 166 14 168 4 183 -2 243 -95 51 -79
86 -168 101 -260 11 -66 11 -82 -4 -134 -10 -35 -29 -71 -46 -87 l-28 -29
-369 -2 c-202 -1 -376 -2 -386 -1 -9 0 -17 -3 -17 -6 0 -9 1857 -7 1866 1 3 4
-175 7 -397 8 -252 0 -407 4 -415 11 -6 5 -22 33 -34 61 -33 78 -26 184 19
264 19 33 35 61 37 63 1 2 15 -6 30 -18 15 -11 32 -21 39 -21 7 0 18 -7 25
-15 18 -22 -2 -19 -51 6 -46 23 -61 19 -34 -11 30 -33 135 -54 135 -27 0 20
-72 85 -100 89 -22 4 -19 7 25 27 28 13 60 23 73 23 34 1 85 -40 105 -83 11
-22 35 -51 55 -65 l37 -24 3 26 c6 44 -7 73 -38 89 -41 21 -57 19 -29 -4 13
-11 21 -23 17 -27 -10 -9 -48 24 -48 41 0 7 13 15 29 17 17 2 28 1 25 -4 -3
-4 2 -11 11 -15 10 -3 20 -1 24 5 7 12 51 5 51 -8 0 -5 -10 -6 -22 -2 -14 3
-19 1 -14 -6 9 -15 71 -26 93 -17 16 6 16 8 -6 26 -13 10 -36 19 -52 19 -16 0
-39 11 -55 25 -32 29 -46 32 -37 8 5 -15 3 -16 -8 -5 -19 17 -34 15 -19 -3 10
-12 9 -15 -4 -15 -9 0 -19 7 -22 15 -4 9 -14 13 -23 11 -9 -3 -22 -2 -30 3
-16 10 35 19 113 20 26 1 53 4 58 7 6 4 7 -2 3 -17 -7 -22 -7 -23 10 -9 17 14
17 14 6 -7 -10 -20 -9 -23 6 -23 30 0 63 12 63 22 0 5 -8 4 -19 -2 -34 -18
-41 -11 -16 15 31 31 34 59 4 50 -18 -6 -19 -5 -7 14 10 17 14 18 21 6 4 -8
17 -19 27 -25 26 -14 27 9 1 41 l-18 23 -37 -37 c-40 -41 -48 -44 -65 -23 -9
10 -8 15 4 20 8 3 15 10 15 16 0 6 -11 3 -25 -7 -13 -10 -22 -24 -20 -31 3 -9
-14 -12 -73 -11 -59 1 -94 -4 -152 -24 -41 -14 -76 -24 -77 -23 -5 5 46 127
67 160 25 41 36 46 108 46 61 0 102 -15 110 -40 4 -11 -1 -10 -17 4 -11 11
-21 14 -21 8 0 -13 58 -72 71 -72 15 0 10 42 -8 63 -17 20 -17 20 7 13 14 -4
51 -10 83 -13 44 -4 57 -9 57 -22 1 -13 3 -13 15 3 8 11 15 15 15 9 0 -7 -7
-19 -16 -27 -8 -9 -11 -16 -7 -16 5 0 18 -7 29 -16 18 -14 18 -15 -6 -9 -24 6
-24 5 -6 -9 21 -17 86 -22 86 -7 0 16 -43 41 -69 41 -23 0 -23 1 -8 18 10 10
17 26 17 35 0 9 5 17 10 17 6 0 5 6 -2 14 -11 12 -16 11 -34 -5 -27 -25 -38
-24 -54 5 -15 30 -39 41 -54 26 -8 -8 -4 -17 13 -31 21 -17 21 -19 4 -19 -11
0 -29 14 -41 30 -14 19 -31 30 -45 29 -21 -1 -21 -1 3 -9 14 -4 19 -8 12 -9
-7 -1 -10 -5 -7 -11 8 -13 -11 -12 -55 4 l-35 13 28 6 c27 7 65 52 54 64 -10
9 -95 -26 -101 -43 -5 -12 -2 -12 15 -3 11 6 23 8 26 6 10 -11 -34 -25 -90
-29 -64 -5 -65 -9 8 70 35 39 101 76 117 66 8 -5 5 -10 -8 -15 -16 -6 -14 -9
18 -23 21 -9 40 -16 43 -16 13 0 3 23 -19 45 l-24 24 72 0 c52 0 66 -3 53 -10
-13 -8 -15 -14 -7 -30 6 -10 17 -19 25 -19 18 0 20 26 3 36 -8 5 -6 9 7 14 13
5 0 11 -44 22 -35 9 -70 14 -78 11 -12 -5 -14 -1 -8 15 7 25 -13 30 -33 10
-14 -14 -16 -32 -3 -23 5 3 12 1 15 -4 3 -4 -15 -14 -39 -21 -25 -7 -48 -17
-51 -21 -3 -5 -10 -9 -15 -9 -13 0 0 73 15 82 7 5 7 8 -3 8 -11 0 -11 3 -1 15
7 8 22 15 33 15 20 0 20 0 1 -15 -17 -13 -15 -14 31 -8 28 3 56 10 63 16 9 7
18 5 30 -7 16 -16 16 -17 0 -10 -29 10 -20 -4 11 -21 29 -14 31 -14 61 16 32
32 29 58 -5 45 -14 -5 -15 -9 -6 -20 19 -23 -5 -28 -36 -9 -25 16 -28 24 -27
66 2 51 -6 57 -35 28 -11 -11 -34 -27 -51 -36 -29 -15 -33 -15 -50 0 -14 13
-23 14 -37 7 -16 -9 -15 -11 9 -23 l27 -12 -24 -29 c-14 -16 -25 -34 -25 -39
0 -5 -6 -9 -13 -9 -17 0 -47 -32 -47 -50 0 -11 3 -11 12 -2 20 20 32 13 13 -8
-22 -24 -9 -27 17 -3 10 9 18 11 18 6 0 -6 -15 -24 -32 -40 -18 -15 -39 -41
-45 -56 -8 -18 -19 -27 -30 -25 -10 2 -18 -4 -19 -12 -2 -28 -16 -60 -26 -60
-5 0 -7 8 -4 18 11 35 16 132 7 132 -5 0 -12 -39 -16 -87 -7 -95 -17 -130 -47
-168 -25 -32 -43 -32 -57 3 -7 15 -31 40 -54 56 -42 29 -42 29 -18 40 18 8 25
8 29 -2 2 -6 9 -12 16 -12 6 0 29 -12 49 -26 21 -14 41 -24 43 -21 10 10 -40
57 -69 65 l-32 8 1 70 c0 38 6 111 14 162 12 76 17 91 30 86 30 -13 68 -16 74
-5 4 6 0 11 -11 12 -16 0 -16 1 2 10 15 7 8 8 -27 6 -44 -2 -48 0 -48 20 0 17
4 21 18 16 15 -6 15 -5 3 10 -7 9 -17 14 -22 11 -5 -3 -12 3 -16 12 -4 10 -2
19 5 22 7 2 9 9 5 15 -3 7 -2 8 3 4 5 -5 9 -12 9 -16 0 -3 10 -19 23 -35 17
-23 22 -25 22 -11 0 10 -7 26 -16 36 -23 25 -11 67 24 81 37 14 152 26 152 15
0 -4 4 -5 10 -2 5 3 7 0 4 -8 -3 -8 2 -17 12 -21 23 -9 31 1 17 23 -10 16 -9
20 6 24 21 5 36 47 17 47 -7 0 -21 -7 -32 -15 -14 -11 -15 -14 -4 -15 13 0 13
-2 0 -10 -10 -6 -20 -2 -35 13 l-20 22 28 12 c18 8 29 22 33 43 8 38 44 41 79
5 31 -30 34 -65 6 -58 -23 6 -38 -14 -22 -30 9 -9 16 -8 31 1 17 10 20 10 20
-4 0 -9 15 -31 34 -50 31 -31 34 -39 13 -35 -4 1 0 -13 9 -30 11 -22 19 -28
26 -21 14 14 2 45 -14 36 -10 -5 -10 -4 -2 5 9 10 20 9 49 -3 21 -9 51 -16 68
-16 29 0 29 -1 13 -19 -9 -10 -14 -25 -11 -33 3 -8 -2 -21 -11 -29 -15 -12
-16 -12 -11 6 4 11 3 26 -2 34 -7 10 -12 8 -25 -10 -17 -25 -22 -54 -7 -45 5
4 11 1 13 -6 3 -7 22 5 47 27 31 28 41 45 38 61 -3 20 -1 21 36 16 31 -4 38
-2 32 8 -5 9 -25 10 -71 5 -59 -6 -64 -5 -64 13 0 24 -25 46 -40 37 -6 -4 -9
-13 -6 -21 6 -17 4 -17 -27 -3 -17 8 -23 17 -20 32 3 16 -4 27 -26 40 -19 11
-31 26 -31 39 0 19 2 19 21 -6 11 -14 25 -24 30 -21 16 11 9 51 -12 71 -19 17
-22 17 -33 2 -11 -15 -13 -15 -24 3 -7 10 -12 21 -12 23 0 10 79 -16 139 -46
82 -41 92 -44 63 -21 l-23 19 24 26 c33 36 20 57 -21 33 -26 -16 -28 -20 -16
-33 21 -21 9 -27 -18 -10 -33 21 -117 48 -150 48 -16 0 -38 5 -49 11 -15 7
-24 7 -34 -1 -8 -6 -22 -10 -31 -8 -31 6 31 66 86 82 65 19 84 31 103 59 15
23 15 27 -1 59 l-18 34 58 -4 c61 -5 71 3 41 31 -28 24 -65 30 -88 13 -20 -15
-20 -15 1 -10 12 3 25 1 29 -6 5 -8 -4 -10 -31 -8 -35 3 -39 6 -45 37 -4 18
-14 40 -23 49 -14 14 -16 14 -22 -1 -8 -21 3 -67 16 -67 5 0 6 7 3 17 -4 11
-3 14 5 9 7 -4 12 -12 12 -19 0 -6 11 -22 24 -36 14 -15 28 -38 31 -53 9 -35
-27 -72 -84 -88 -23 -6 -50 -14 -59 -17 -16 -5 -16 -5 0 12 23 25 6 73 -30 81
-15 3 -33 8 -40 10 -23 7 -73 -26 -94 -63 -19 -31 -22 -33 -31 -17 -9 15 -11
15 -22 -6 -7 -13 -11 -30 -8 -37 3 -7 -13 -33 -36 -58 -22 -24 -41 -49 -41
-54 0 -5 -13 3 -29 17 -25 24 -27 30 -19 62 5 19 12 42 15 50 3 8 5 19 4 25
-2 5 0 7 4 3 4 -4 19 -2 34 3 26 10 26 10 -4 -15 -16 -14 -24 -25 -17 -26 25
0 77 28 102 55 l25 27 -56 -4 c-55 -3 -56 -3 -46 20 6 12 14 22 19 22 5 0 6
-4 3 -10 -10 -15 7 -12 41 9 27 17 53 65 41 77 -6 6 -87 -48 -87 -58 0 -4 -4
-8 -10 -8 -5 0 -10 9 -10 20 0 13 -13 28 -35 41 -41 25 -44 35 -10 43 40 10
69 88 46 124 -6 10 -17 3 -43 -26z m-4 -71 c-15 -17 -30 -28 -34 -26 -4 3 7
20 24 38 38 42 48 30 10 -12z m41 -131 c4 -13 -1 -33 -14 -53 l-21 -32 0 44
c0 36 3 42 16 37 14 -5 15 -4 4 9 -8 9 -8 15 -2 15 6 0 14 -9 17 -20z m60 0
c-3 -5 -11 -10 -16 -10 -6 0 -7 5 -4 10 3 6 11 10 16 10 6 0 7 -4 4 -10z m196
-62 c18 -19 28 -26 25 -15 -3 9 -1 17 5 17 15 0 9 -16 -31 -87 -26 -46 -44
-66 -72 -79 -20 -9 -51 -31 -69 -50 -24 -24 -42 -34 -64 -34 -17 0 -36 -5 -43
-12 -9 -9 -12 -9 -12 3 0 32 13 57 31 62 22 6 25 -3 7 -21 -8 -8 -9 -12 -1
-12 15 0 73 49 73 61 0 15 -58 10 -74 -7 -9 -8 -16 -12 -16 -7 0 5 18 26 40
46 21 21 54 60 71 87 18 28 37 50 42 50 5 0 4 -7 -3 -15 -10 -12 -10 -15 0
-15 18 0 50 30 50 47 0 20 7 16 41 -19z m-533 -61 c15 9 23 7 43 -8 l24 -19
-42 0 c-30 0 -43 -4 -43 -14 0 -18 20 -25 54 -19 20 4 24 8 14 14 -10 7 -8 9
7 9 23 0 34 -7 54 -33 13 -17 12 -18 -12 -12 -14 4 -42 2 -61 -5 -37 -12 -49
-30 -19 -30 15 0 15 -1 0 -18 -22 -24 -21 -27 3 -29 22 -2 38 36 24 58 -4 8
-3 9 4 5 7 -4 12 -2 12 4 0 8 9 10 27 5 36 -9 32 -3 49 -76 8 -35 19 -68 24
-73 6 -6 10 -30 10 -54 0 -36 -5 -48 -30 -69 -16 -13 -30 -32 -30 -42 0 -9 -5
-22 -11 -28 -7 -7 -7 -13 0 -17 5 -4 15 3 21 14 6 11 18 20 26 20 14 0 14 -2
0 -15 -9 -9 -20 -24 -26 -33 -9 -16 -11 -16 -24 2 -8 10 -20 15 -26 11 -8 -5
-11 -1 -8 11 2 11 11 18 21 18 14 -2 17 7 17 41 0 35 4 45 21 50 24 8 43 50
31 71 -7 12 -11 11 -27 -6 -21 -24 -35 -26 -35 -5 0 8 5 15 10 15 19 0 30 48
19 78 l-11 27 -23 -45 c-21 -41 -22 -48 -9 -72 8 -15 14 -44 14 -65 l0 -38
-32 40 c-18 21 -36 53 -39 69 l-6 31 -2 -32 c-1 -25 8 -43 35 -73 20 -21 34
-47 32 -57 -2 -13 -19 1 -62 52 -54 64 -57 69 -37 76 24 9 19 34 -10 50 -11 5
-19 17 -18 27 0 10 3 12 6 5 6 -17 33 -16 33 1 0 20 -30 43 -38 29 -13 -21
-48 59 -41 92 l7 30 1 -27 c0 -16 5 -28 10 -28 14 0 30 55 20 71 -15 23 -10
30 11 17 15 -10 24 -10 38 -1z m-81 -12 c0 -8 -4 -12 -9 -9 -5 3 -6 10 -3 15
9 13 12 11 12 -6z m-197 -70 c0 -8 -2 -15 -4 -15 -2 0 -6 7 -10 15 -3 8 -1 15
4 15 6 0 10 -7 10 -15z m54 -1 c3 -8 2 -12 -4 -9 -6 3 -10 10 -10 16 0 14 7
11 14 -7z m749 -34 c-36 -22 -43 -33 -15 -24 9 4 4 -3 -13 -15 -38 -27 -43
-26 -38 3 3 13 18 30 36 39 46 23 68 21 30 -3z m187 -21 c0 -6 -4 -7 -10 -4
-5 3 -10 11 -10 16 0 6 5 7 10 4 6 -3 10 -11 10 -16z m-272 -16 c1 -10 2 -26
3 -37 0 -17 1 -17 20 0 16 14 22 15 32 4 10 -10 9 -11 -3 -5 -13 8 -13 6 -2
-8 13 -15 9 -16 -41 -16 -31 1 -60 -2 -66 -6 -24 -14 -9 15 20 39 17 14 28 26
24 26 -3 0 -3 5 0 10 9 14 11 13 13 -7z m-257 -47 c-7 -8 -9 -21 -5 -27 4 -8
3 -9 -4 -5 -16 10 -15 43 1 49 18 6 21 -1 8 -17z m138 -41 c-17 -25 -33 -60
-36 -80 -8 -51 -23 -32 -23 30 0 35 5 59 16 69 20 20 30 21 14 1 -9 -11 -9
-15 -1 -15 6 0 19 9 28 20 32 37 33 21 2 -25z m389 24 c-2 -3 3 -13 11 -22 8
-11 9 -17 3 -17 -6 0 -16 9 -22 19 -13 25 -13 34 1 29 6 -2 9 -6 7 -9z m-616
-31 c-7 -7 -12 -8 -12 -2 0 6 3 14 7 17 3 4 9 5 12 2 2 -3 -1 -11 -7 -17z
m-107 -6 c-3 -3 -11 0 -18 7 -9 10 -8 11 6 5 10 -3 15 -9 12 -12z m-63 -52
c56 -29 108 -79 108 -105 0 -26 27 -65 44 -65 8 0 17 -7 20 -16 12 -31 6 -37
-16 -17 -13 11 -38 28 -55 37 -18 9 -33 22 -33 29 0 8 4 7 10 -3 8 -12 10 -11
10 6 0 12 -9 32 -20 45 l-21 24 3 -43 c3 -33 0 -41 -10 -37 -8 3 -22 5 -33 5
-10 0 -19 5 -19 11 0 5 5 7 10 4 16 -10 12 12 -6 29 -22 22 -35 11 -24 -19 8
-22 7 -25 -15 -25 -28 0 -42 17 -26 33 6 6 11 18 11 28 0 12 6 15 25 11 30 -5
75 5 75 17 0 5 -10 7 -22 4 -23 -5 -23 -5 -3 10 20 16 20 16 -3 17 -54 0 -116
-59 -101 -97 7 -20 5 -23 -17 -23 -14 0 -41 -7 -60 -16 -26 -12 -37 -14 -48
-5 -18 15 -45 -14 -28 -31 8 -8 13 -7 18 5 5 15 8 15 30 1 21 -14 22 -18 9
-31 -8 -8 -15 -19 -15 -24 0 -5 -4 -9 -10 -9 -5 0 -10 6 -10 14 0 8 -20 29
-45 47 -25 18 -45 34 -45 36 0 2 5 1 10 -2 6 -4 10 5 10 20 0 14 -4 24 -8 21
-4 -2 -7 16 -6 41 2 37 7 49 25 59 l24 13 -30 1 c-25 1 -27 3 -10 9 11 4 28 6
38 3 17 -4 17 -6 -2 -26 -43 -45 -13 -57 47 -20 28 18 30 39 2 24 -14 -7 -20
-7 -20 0 0 5 6 10 13 10 8 0 8 3 -2 9 -11 7 -7 11 15 14 59 10 162 -1 206 -23z
m198 -4 c0 -3 -4 -8 -10 -11 -5 -3 -10 -1 -10 4 0 6 5 11 10 11 6 0 10 -2 10
-4z m61 -119 c-6 -6 -11 -26 -11 -44 0 -20 -5 -33 -12 -33 -9 0 -8 -3 2 -10
18 -11 8 -23 -13 -14 -27 10 -32 44 -9 60 26 18 34 52 15 63 -14 7 -13 11 6
30 11 11 22 27 23 34 1 6 3 -8 5 -32 3 -24 -1 -49 -6 -54z m561 30 c-27 -28
-28 -38 -4 -30 15 5 15 4 2 -10 -13 -13 -21 -14 -52 -4 l-37 11 47 28 c58 34
73 35 44 5z m-746 -77 c43 -17 92 -57 109 -90 8 -16 22 -77 31 -137 9 -59 31
-154 50 -210 19 -56 34 -105 34 -109 0 -21 -20 19 -40 79 -12 37 -37 90 -54
116 -30 44 -32 51 -20 72 7 13 13 32 14 41 0 22 -30 98 -39 98 -13 0 -41 -59
-41 -88 0 -16 7 -35 15 -42 13 -10 15 -9 15 9 0 11 5 21 10 21 6 0 10 -13 10
-30 0 -16 -2 -30 -5 -30 -12 0 -65 44 -65 54 0 6 -7 24 -15 40 -9 16 -14 29
-13 30 44 16 65 56 54 100 -9 36 -25 29 -60 -28 l-29 -47 21 -38 c31 -54 28
-62 -15 -40 -21 10 -45 19 -54 19 -29 0 -88 29 -99 49 -13 26 -13 68 2 77 7 4
8 3 4 -4 -4 -7 -3 -12 3 -12 13 0 26 48 16 58 -4 4 -14 -3 -24 -14 l-17 -21
-17 28 c-16 28 -16 29 8 29 31 0 43 20 13 21 -23 1 -23 1 2 9 32 11 158 4 196
-10z m219 -49 c3 -11 12 -18 19 -15 13 5 31 -24 22 -34 -10 -9 -74 9 -80 23
-3 8 0 15 6 15 7 0 6 5 -2 15 -10 13 -9 15 8 15 12 0 23 -8 27 -19z m-40 -88
c4 -31 20 -110 36 -176 16 -66 27 -129 23 -141 -5 -17 -4 -19 6 -9 16 14 20
81 8 105 -6 13 -5 16 5 12 8 -3 21 -20 30 -39 18 -39 53 -53 86 -35 18 9 21 8
21 -9 0 -11 7 -24 15 -28 12 -7 11 -11 -6 -21 -16 -10 -19 -10 -14 -1 5 8 4
10 -3 5 -7 -4 -12 -12 -12 -17 0 -5 -10 -26 -23 -47 -30 -48 -52 -126 -49
-177 1 -23 10 -66 21 -98 l20 -57 -85 0 c-46 0 -84 2 -84 4 0 2 10 25 22 52
24 54 28 142 10 207 -9 33 -9 37 9 37 27 0 34 42 15 91 -9 22 -12 38 -6 34 14
-8 13 -6 -14 93 -13 48 -31 122 -40 164 -8 42 -18 89 -22 105 -6 24 -5 26 8
15 9 -7 19 -38 23 -69z m-444 14 c-8 -8 -11 -7 -11 4 0 20 13 34 18 19 3 -7
-1 -17 -7 -23z m274 -23 c-9 -14 -19 -23 -22 -20 -4 3 1 14 10 24 10 10 17 25
18 33 0 10 2 11 6 1 3 -7 -3 -24 -12 -38z m244 2 c-5 -17 -9 -52 -9 -78 0 -27
-4 -48 -9 -48 -11 0 -19 33 -26 106 -4 50 -4 51 24 51 27 0 28 -2 20 -31z
m-168 -79 c-8 -8 -11 -7 -11 4 0 9 3 19 7 23 4 4 9 2 11 -4 3 -7 -1 -17 -7
-23z m719 -177 c0 -5 -5 -10 -11 -10 -5 0 -7 5 -4 10 3 6 8 10 11 10 2 0 4 -4
4 -10z m-73 -156 c-9 -9 -28 6 -21 18 4 6 10 6 17 -1 6 -6 8 -13 4 -17z"/>
<path d="M1643 2479 c-48 -45 -50 -49 -25 -49 13 0 14 -2 4 -9 -10 -6 -8 -9
10 -13 13 -2 29 -3 36 0 20 6 -6 32 -32 32 -21 1 -21 1 3 20 13 11 28 20 35
19 7 0 7 -2 -1 -6 -23 -9 -14 -25 10 -18 22 7 57 40 57 56 0 5 -12 4 -26 -1
-32 -13 -37 -12 -29 0 11 18 1 10 -42 -31z"/>
<path d="M1195 2410 c-10 -16 5 -50 21 -50 15 0 18 18 8 44 -7 18 -20 21 -29
6z"/>
<path d="M1245 2298 c9 -29 8 -28 34 -33 35 -6 23 23 -17 44 -22 12 -23 11
-17 -11z"/>
<path d="M1270 2221 c0 -22 25 -45 40 -36 13 8 -3 40 -25 49 -10 3 -15 -1 -15
-13z"/>
<path d="M1012 2198 c-7 -7 -12 -18 -12 -25 0 -7 -9 -13 -21 -13 -11 0 -17 -5
-14 -10 9 -14 55 -7 66 11 11 17 12 49 1 49 -4 0 -13 -5 -20 -12z"/>
<path d="M1058 2178 l-23 -23 22 -3 c12 -2 34 4 50 13 15 9 20 14 11 11 -20
-6 -25 10 -5 17 6 3 2 6 -10 6 -13 1 -33 -9 -45 -21z"/>
<path d="M896 2122 c-13 -22 86 -81 116 -69 7 3 3 6 -8 6 -12 1 -27 8 -34 16
-7 8 -16 12 -21 9 -5 -3 -6 1 -3 9 5 14 -42 42 -50 29z"/>
<path d="M1044 2122 c5 -8 -1 -12 -16 -12 -24 0 -48 -16 -48 -32 0 -10 41 -10
56 0 17 11 24 41 12 48 -7 4 -8 3 -4 -4z"/>
<path d="M880 2066 c0 -20 14 -28 36 -19 16 6 16 7 -2 20 -23 17 -34 17 -34
-1z"/>
<path d="M1090 2015 c-18 -22 -4 -30 27 -16 22 10 24 14 12 22 -19 12 -25 11
-39 -6z"/>
<path d="M1189 1978 c-7 -18 -12 -40 -11 -49 2 -26 -47 0 -54 29 -4 12 -10 22
-14 22 -14 0 -23 -41 -11 -53 8 -8 11 -8 11 1 0 7 12 1 26 -13 14 -14 30 -22
36 -19 6 4 14 0 19 -7 6 -9 7 -3 3 17 -4 20 -2 34 7 39 9 6 10 3 5 -10 -5 -15
-4 -16 9 -5 18 15 17 71 -1 77 -7 2 -18 -11 -25 -29z"/>
<path d="M1142 1980 c1 -13 9 -25 16 -28 17 -5 15 23 -4 39 -14 11 -15 10 -12
-11z"/>
<path d="M1060 1890 c0 -12 45 -24 60 -15 5 3 8 11 5 16 -8 12 -65 12 -65 -1z"/>
<path d="M1160 1875 c25 -14 25 -14 -15 -15 -47 0 -85 -19 -45 -21 14 -1 36
-1 50 0 20 1 22 0 10 -9 -13 -9 -12 -11 4 -8 25 4 29 46 5 59 -28 15 -37 10
-9 -6z"/>
<path d="M1720 2822 c0 -23 23 -45 35 -34 5 4 5 0 0 -8 -6 -12 -5 -12 5 -3 16
15 7 38 -19 53 -18 9 -21 8 -21 -8z"/>
<path d="M1266 2804 c-10 -27 -7 -54 8 -54 7 0 16 9 19 21 10 38 -14 68 -27
33z"/>
<path d="M1170 2776 c-13 -34 -14 -77 -1 -57 7 11 9 11 13 0 8 -22 21 -2 21
31 0 45 -20 60 -33 26z"/>
<path d="M1802 2784 c-20 -13 -22 -22 -18 -71 4 -51 16 -88 16 -50 0 10 4 17
10 17 6 0 6 -9 0 -26 -7 -18 -7 -31 0 -39 6 -7 13 -26 16 -41 6 -34 12 -44 25
-44 6 0 7 6 3 13 -5 8 -2 8 9 -2 27 -22 20 -2 -14 37 l-31 35 31 13 c31 13 50
39 37 51 -3 3 -17 1 -31 -5 -24 -11 -36 0 -15 13 6 3 10 10 10 16 0 13 -34 11
-48 -3 -9 -9 -12 -8 -12 6 0 10 14 31 30 46 47 44 33 70 -18 34z m33 -144 c-3
-5 -11 -10 -16 -10 -6 0 -7 5 -4 10 3 6 11 10 16 10 6 0 7 -4 4 -10z"/>
<path d="M1310 2761 c-5 -11 -10 -29 -10 -40 0 -28 20 -37 21 -9 1 23 1 23 9
-2 l7 -25 7 27 c8 29 0 68 -14 68 -5 0 -14 -9 -20 -19z"/>
<path d="M1677 2773 c-4 -6 7 -20 23 -31 36 -27 58 -30 39 -4 -11 14 -10 13 9
-2 18 -16 22 -16 22 -4 0 9 -6 21 -13 27 -19 15 -73 25 -80 14z"/>
<path d="M1242 2724 c9 -9 21 -13 27 -9 16 10 3 25 -22 25 -20 0 -20 -1 -5
-16z"/>
<path d="M1520 2719 c-9 -15 -8 -24 0 -35 17 -20 30 -8 30 27 0 34 -14 38 -30
8z"/>
<path d="M1080 2721 c0 -21 44 -62 63 -59 33 5 31 26 -5 48 -35 21 -58 26 -58
11z m75 -49 c-3 -3 -11 0 -18 7 -9 10 -8 11 6 5 10 -3 15 -9 12 -12z"/>
<path d="M1667 2713 c-22 -25 -28 -62 -18 -103 l9 -35 1 37 c1 20 6 40 11 43
7 4 8 -3 4 -22 -7 -25 -6 -27 9 -15 19 16 31 64 22 92 -8 25 -17 25 -38 3z"/>
<path d="M1197 2692 c-12 -14 -15 -28 -11 -51 l7 -33 20 32 c14 22 17 37 11
51 -9 20 -10 20 -27 1z"/>
<path d="M1240 2701 c0 -5 9 -19 19 -32 16 -19 23 -22 38 -13 14 9 21 7 36
-10 18 -21 18 -20 1 7 -9 15 -19 25 -22 22 -3 -3 -12 1 -21 8 -21 18 -51 29
-51 18z"/>
<path d="M1720 2688 c0 -21 29 -58 46 -58 29 0 14 39 -23 59 -18 9 -23 9 -23
-1z"/>
<path d="M940 2605 c0 -42 22 -90 45 -99 25 -9 27 -8 15 13 -5 11 -10 26 -10
33 1 7 9 -3 20 -22 l19 -35 1 39 c0 30 -7 45 -34 72 -43 43 -56 43 -56 -1z
m50 -23 c0 -13 -12 -22 -22 -16 -10 6 -1 24 13 24 5 0 9 -4 9 -8z"/>
<path d="M1120 2617 c0 -19 38 -57 57 -57 12 0 13 3 4 14 -10 12 -8 13 8 9 13
-3 21 -1 21 8 0 7 -3 9 -6 6 -4 -3 -18 3 -32 13 -28 23 -52 26 -52 7z"/>
<path d="M1880 2603 c0 -37 13 -55 33 -47 21 8 21 23 1 52 -21 30 -34 28 -34
-5z"/>
<path d="M1998 2619 c-10 -5 -18 -15 -18 -20 0 -6 5 -7 10 -4 6 3 10 2 10 -4
0 -5 -4 -13 -10 -16 -6 -4 -4 -17 5 -35 l15 -29 -48 -4 c-42 -3 -41 -4 16 -5
52 -2 62 1 62 15 0 9 -7 25 -17 35 -14 16 -14 20 -1 36 27 31 30 42 11 42 -10
0 -26 -5 -35 -11z"/>
<path d="M2072 2604 c-10 -20 -9 -29 1 -45 13 -18 14 -18 25 5 11 24 6 66 -8
66 -4 0 -12 -12 -18 -26z"/>
<path d="M836 2523 c-18 -19 1 -84 33 -111 14 -12 12 -13 -12 -7 -30 6 -67 -1
-67 -13 0 -13 62 -42 88 -42 l27 1 -25 14 c-30 17 -9 20 23 4 21 -11 21 -11 7
7 -26 32 -52 84 -42 84 5 0 15 -12 22 -27 11 -22 14 -24 17 -11 9 37 -50 121
-71 101z"/>
<path d="M2064 2515 c-14 -11 -15 -14 -2 -9 11 4 20 -3 30 -22 7 -16 18 -29
23 -29 15 0 18 44 5 61 -16 18 -31 18 -56 -1z"/>
<path d="M1834 2480 c-33 -13 -37 -28 -6 -23 21 4 24 2 12 -6 -12 -9 -10 -11
10 -11 27 0 38 6 59 33 12 15 10 17 -20 16 -19 0 -44 -4 -55 -9z"/>
<path d="M1965 2482 c-24 -5 -45 -21 -45 -34 0 -5 9 -4 20 2 25 13 26 2 3 -17
-16 -13 -16 -13 7 -7 31 8 70 32 70 43 0 11 -30 18 -55 13z"/>
<path d="M2040 2474 c0 -8 5 -12 10 -9 6 3 10 10 10 16 0 5 -4 9 -10 9 -5 0
-10 -7 -10 -16z"/>
<path d="M770 2461 c0 -27 25 -44 52 -36 l22 8 -28 23 c-33 29 -46 30 -46 5z"/>
<path d="M1495 2470 c-10 -16 14 -50 30 -44 11 5 12 11 5 24 -13 25 -27 33
-35 20z"/>
<path d="M2184 2451 c-51 -13 -63 -24 -34 -32 l25 -7 -25 -1 c-20 -1 -22 -3
-10 -11 27 -17 90 16 90 47 0 14 -1 14 -46 4z"/>
<path d="M2023 2440 c-25 -10 -30 -25 -12 -35 11 -7 49 22 49 37 0 10 -8 9
-37 -2z"/>
<path d="M2104 2365 c4 -16 8 -37 10 -45 2 -9 13 -14 27 -12 18 1 21 0 9 -7
-12 -9 -12 -14 3 -45 19 -41 33 -46 42 -15 4 13 1 27 -9 38 -16 17 -15 19 6
26 13 4 42 7 66 5 34 -1 41 1 36 13 -9 25 -53 49 -82 46 -15 -2 -34 1 -42 5
-8 5 -3 -4 12 -20 l28 -30 -33 0 c-29 0 -33 3 -29 21 2 12 -4 27 -14 36 -16
13 -17 12 -11 -6 7 -20 7 -20 -9 0 -16 19 -16 19 -10 -10z m121 -15 c3 -5 2
-10 -4 -10 -5 0 -13 5 -16 10 -3 6 -2 10 4 10 5 0 13 -4 16 -10z"/>
<path d="M1823 2370 c-31 -13 -29 -27 4 -26 18 1 29 7 31 19 4 19 -2 20 -35 7z"/>
<path d="M738 2363 c-25 -6 -22 -18 7 -37 33 -22 85 -32 85 -17 0 6 -7 11 -15
11 -8 0 -15 5 -15 10 0 7 7 7 21 0 27 -15 34 -7 11 13 -20 18 -67 28 -94 20z"/>
<path d="M1035 2328 c-19 -28 -13 -30 45 -19 25 5 37 9 28 10 -10 1 -18 5 -18
11 0 5 7 6 17 3 11 -4 14 -3 9 5 -13 21 -64 14 -81 -10z"/>
<path d="M885 2320 c-10 -11 -16 -23 -13 -26 11 -10 73 12 73 27 0 22 -39 22
-60 -1z"/>
<path d="M2022 2314 c-23 -16 -31 -40 -9 -29 6 4 3 -1 -7 -9 -15 -12 -16 -16
-5 -16 18 0 59 41 59 58 0 16 -11 15 -38 -4z"/>
<path d="M984 2274 l17 -25 -30 15 c-40 21 -125 21 -145 0 -17 -16 -22 -44 -8
-44 14 0 43 36 35 43 -3 4 9 7 27 7 32 0 33 -1 14 -14 -10 -8 -16 -18 -12 -21
10 -10 58 3 58 16 0 6 -6 7 -12 3 -10 -5 -10 -4 -2 5 9 10 19 9 45 -4 23 -12
34 -14 37 -6 2 6 8 9 13 5 5 -3 9 -1 9 5 0 15 -30 41 -47 41 -13 0 -13 -3 1
-26z"/>
<path d="M712 2243 c-31 -31 -34 -38 -19 -41 23 -5 82 15 97 34 10 11 10 17 0
29 -19 23 -39 18 -78 -22z m68 7 c-20 -13 -33 -13 -25 0 3 6 14 10 23 10 15 0
15 -2 2 -10z"/>
<path d="M1825 2269 c-8 -12 -7 -12 19 -26 18 -10 18 -11 -7 -27 -21 -14 -30
-15 -47 -6 -17 9 -25 9 -33 1 -9 -9 -6 -13 11 -17 24 -7 29 -19 12 -29 -6 -4
-21 -23 -35 -43 -13 -21 -35 -49 -49 -64 -34 -35 -33 -45 2 -23 l27 18 -25
-27 c-17 -18 -24 -36 -22 -56 2 -19 -3 -32 -18 -43 -15 -10 -18 -17 -10 -22 7
-4 16 -1 21 6 7 11 9 10 9 -3 0 -29 20 -21 34 13 16 37 26 27 19 -18 -3 -19
-15 -38 -29 -48 -32 -21 -31 -38 1 -23 14 6 25 17 25 25 0 7 5 13 11 13 9 0
10 23 6 81 -4 44 -2 88 3 97 4 9 11 25 14 34 3 10 20 20 41 24 21 4 45 18 60
36 24 29 34 68 16 68 -14 0 -42 -50 -35 -61 4 -6 0 -15 -7 -20 -21 -13 -29
-11 -23 6 3 8 3 19 -1 26 -11 16 -26 -11 -19 -33 3 -10 1 -18 -5 -18 -5 0 -17
-3 -27 -7 -16 -6 -15 -4 2 26 19 33 91 91 129 105 17 6 17 8 -10 26 -34 22
-51 25 -60 9z m-96 -296 c1 -7 -8 -13 -19 -13 -14 0 -20 7 -20 24 0 45 37 34
39 -11z"/>
<path d="M2055 2270 c-6 -10 45 -40 70 -40 20 0 19 13 -3 33 -20 19 -57 23
-67 7z m32 -6 c-3 -3 -12 -4 -19 -1 -8 3 -5 6 6 6 11 1 17 -2 13 -5z"/>
<path d="M1633 2239 c9 -5 17 -15 17 -22 0 -7 -4 -6 -10 3 -14 23 -20 7 -7
-19 16 -31 33 -27 30 6 -2 26 -18 43 -38 43 -5 -1 -2 -5 8 -11z"/>
<path d="M1702 2243 c-6 -2 -9 -10 -5 -16 4 -7 0 -8 -13 -3 -18 7 -18 6 -2
-10 15 -16 18 -16 33 0 9 9 21 16 26 16 5 0 9 5 9 10 0 10 -26 12 -48 3z"/>
<path d="M1720 2185 c0 -16 27 -32 37 -21 7 7 -16 36 -28 36 -5 0 -9 -7 -9
-15z"/>
<path d="M1915 2170 c-3 -5 3 -10 14 -10 12 0 21 5 21 10 0 6 -6 10 -14 10 -8
0 -18 -4 -21 -10z"/>
<path d="M727 2140 c8 -29 29 -43 55 -35 l22 8 -28 23 c-34 30 -56 31 -49 4z"/>
<path d="M1700 2151 c0 -13 26 -32 33 -24 8 7 -11 33 -24 33 -5 0 -9 -4 -9 -9z"/>
<path d="M2160 2144 c-18 -21 9 -49 39 -39 27 8 27 25 1 25 -13 0 -18 5 -14
15 8 20 -10 19 -26 -1z"/>
<path d="M1622 2138 c-16 -16 -15 -28 3 -28 8 0 15 9 15 20 0 23 -2 24 -18 8z"/>
<path d="M1880 2136 c0 -17 25 -27 46 -19 14 5 12 8 -7 19 -31 17 -39 17 -39
0z"/>
<path d="M2239 2134 c-12 -15 -11 -16 10 -9 16 5 21 4 17 -4 -4 -6 -15 -11
-24 -11 -9 -1 -2 -7 16 -15 36 -16 44 -30 10 -19 -20 6 -21 5 -9 -9 14 -17 77
-34 88 -23 9 9 -18 37 -47 49 -23 9 -23 11 -5 15 27 6 46 22 39 33 -9 16 -81
10 -95 -7z"/>
<path d="M1660 2121 c-5 -11 -10 -27 -10 -35 0 -24 25 -19 37 7 18 40 -6 66
-27 28z"/>
<path d="M1796 2082 c-9 -15 12 -54 25 -47 12 8 11 18 -4 40 -10 12 -16 14
-21 7z"/>
<path d="M2123 2083 c-15 -5 9 -34 45 -53 22 -11 23 -10 17 12 -7 22 -32 49
-44 47 -3 0 -11 -3 -18 -6z m32 -21 c-3 -3 -11 0 -18 7 -9 10 -8 11 6 5 10 -3
15 -9 12 -12z"/>
<path d="M2218 2069 c6 -7 12 -19 12 -27 0 -9 -7 -6 -20 9 -10 13 -19 20 -20
16 0 -18 29 -73 48 -90 20 -18 20 -18 27 14 8 33 -16 78 -46 87 -11 4 -12 2
-1 -9z"/>
<path d="M664 2034 c10 -38 31 -71 56 -84 25 -13 25 -10 -2 37 -23 40 -15 36
20 -11 l22 -29 0 25 c0 23 -43 78 -61 78 -4 0 -15 3 -25 7 -15 5 -16 2 -10
-23z"/>
<path d="M1557 2033 c-2 -5 -4 -22 -5 -40 -2 -23 4 -36 20 -47 35 -24 57 -20
29 5 -12 12 -20 23 -17 26 2 3 15 -4 27 -16 35 -32 34 -17 -1 33 -30 44 -44
55 -53 39z"/>
<path d="M1753 2015 c-3 -9 -3 -19 1 -22 7 -7 36 16 36 28 0 15 -30 10 -37 -6z"/>
<path d="M2096 2004 c-21 -20 -14 -30 26 -39 28 -6 30 -8 14 -14 -18 -7 -18
-8 -2 -14 25 -10 66 -9 66 1 0 5 -12 15 -27 22 -20 9 -24 14 -13 18 8 2 21 9
28 15 11 8 11 12 0 18 -22 14 -76 10 -92 -7z m29 -14 c-3 -5 -14 -10 -23 -10
-15 0 -15 2 -2 10 20 13 33 13 25 0z"/>
<path d="M1624 1995 c25 -19 43 -19 43 0 0 10 -10 15 -31 15 -29 -1 -30 -1
-12 -15z"/>
<path d="M1856 2001 c-6 -10 16 -21 41 -21 13 0 13 3 3 15 -14 17 -36 20 -44
6z"/>
<path d="M779 1962 c16 -30 50 -55 66 -49 22 9 19 23 -11 46 -34 27 -69 29
-55 3z"/>
<path d="M860 1950 c15 -27 47 -44 56 -28 8 13 -30 48 -52 48 -12 0 -12 -4 -4
-20z"/>
<path d="M1995 1929 c18 -19 45 -26 45 -11 0 16 -16 28 -39 29 -22 2 -22 1 -6
-18z"/>
<path d="M680 1910 c0 -21 30 -70 49 -80 51 -27 89 3 55 42 -30 34 -104 60
-104 38z m60 -40 c0 -5 -2 -10 -4 -10 -3 0 -8 5 -11 10 -3 6 -1 10 4 10 6 0
11 -4 11 -10z m40 -25 c14 -16 10 -18 -14 -9 -9 3 -16 10 -16 15 0 14 16 11
30 -6z"/>
<path d="M1571 1899 c6 -12 19 -23 28 -26 17 -4 17 -7 2 -39 -9 -18 -23 -33
-31 -33 -58 4 -60 -12 -7 -48 46 -32 67 -30 36 4 -24 26 -10 23 24 -5 24 -21
22 3 -3 28 -18 18 -18 20 -2 32 22 16 42 45 22 33 -8 -5 -11 -3 -8 6 3 8 -2
20 -11 27 -14 12 -14 13 3 7 19 -6 19 -5 1 15 -10 11 -29 20 -42 20 -21 0 -22
-2 -12 -21z"/>
<path d="M2102 1892 c-36 -30 -43 -49 -12 -32 24 13 27 2 3 -15 -11 -8 -13
-14 -5 -19 17 -10 62 39 62 69 0 32 -7 31 -48 -3z"/>
<path d="M2189 1890 l-24 -20 29 6 c21 5 27 4 22 -5 -4 -6 -17 -11 -29 -11
-19 -1 -19 -2 -6 -10 19 -11 69 1 107 26 19 13 22 18 11 25 -25 16 -86 10
-110 -11z"/>
<path d="M2015 1890 c-27 -11 -48 -37 -40 -50 10 -17 35 -11 60 15 40 39 30
56 -20 35z m-10 -40 c-3 -5 -11 -10 -16 -10 -6 0 -7 5 -4 10 3 6 11 10 16 10
6 0 7 -4 4 -10z"/>
<path d="M945 1821 c-3 -11 -1 -29 5 -41 12 -22 30 -27 30 -9 0 8 5 7 15 -1
25 -21 27 -5 3 30 -28 41 -44 47 -53 21z"/>
<path d="M2210 1827 c-33 -17 -32 -41 2 -45 18 -2 37 6 60 27 l33 30 -35 1
c-19 0 -46 -6 -60 -13z m10 -27 c-20 -13 -33 -13 -25 0 3 6 14 10 23 10 15 0
15 -2 2 -10z"/>
<path d="M1040 1791 c14 -26 33 -37 38 -22 3 9 7 9 18 0 10 -8 14 -8 14 0 0
11 -51 41 -70 41 -8 0 -8 -6 0 -19z"/>
<path d="M1806 1771 c-16 -6 -17 -9 -5 -13 21 -8 70 2 63 13 -6 11 -31 11 -58
0z"/>
<path d="M1821 1731 c-6 -11 -10 -32 -10 -48 1 -17 3 -21 6 -10 6 22 21 23 19
1 0 -9 4 -19 10 -21 17 -6 64 36 64 57 0 17 -4 18 -26 10 -33 -13 -34 -13 -34
4 0 24 -18 28 -29 7z m49 -50 c0 -5 -7 -12 -16 -15 -14 -5 -15 -4 -4 9 14 17
20 19 20 6z"/>
<path d="M2195 1740 c-4 -6 6 -11 22 -11 l28 -1 -30 -7 c-25 -5 -27 -8 -12
-14 27 -10 97 -9 97 2 0 29 -90 55 -105 31z"/>
<path d="M1742 1714 c-33 -27 -70 -84 -53 -84 5 0 23 17 40 37 18 22 31 31 31
22 0 -8 -13 -28 -30 -44 -36 -34 -33 -42 9 -21 36 19 51 44 51 85 0 38 -6 38
-48 5z"/>
<path d="M2014 1726 c-14 -11 -16 -18 -8 -26 9 -9 21 -8 48 5 20 10 33 21 30
26 -8 14 -48 11 -70 -5z"/>
<path d="M991 1707 c-46 -23 -29 -46 35 -47 25 0 59 34 49 49 -8 15 -54 14
-84 -2z m74 -7 c-3 -5 -13 -10 -21 -10 -8 0 -12 5 -9 10 3 6 13 10 21 10 8 0
12 -4 9 -10z"/>
<path d="M1125 1704 c-38 -19 -61 -42 -52 -51 4 -3 30 -7 57 -7 33 -1 50 -5
50 -13 0 -22 28 -14 49 13 27 35 26 48 -4 62 -35 16 -64 15 -100 -4z m76 -8
c-6 -8 -22 -16 -34 -19 -22 -6 -22 -6 2 14 27 22 49 26 32 5z m20 -19 c-10 -9
-11 -8 -5 6 3 10 9 15 12 12 3 -3 0 -11 -7 -18z"/>
<path d="M1544 1688 c-9 -14 20 -41 39 -36 13 2 11 7 -8 25 -15 13 -27 17 -31
11z"/>
<path d="M1917 1683 c-4 -3 -7 -12 -7 -20 0 -11 5 -11 20 -3 11 6 20 15 20 20
0 11 -23 13 -33 3z"/>
<path d="M2119 1601 c-22 -18 -23 -20 -6 -27 21 -8 97 12 97 25 0 8 -33 21
-56 21 -7 0 -22 -9 -35 -19z m21 -11 c0 -5 -8 -10 -17 -10 -15 0 -16 2 -3 10
19 12 20 12 20 0z"/>
<path d="M1808 1543 c17 -16 32 -37 32 -46 0 -12 -12 -4 -36 23 -20 22 -39 38
-42 36 -7 -7 33 -68 63 -96 22 -21 28 -22 35 -10 27 42 -3 98 -60 115 -23 7
-23 5 8 -22z"/>
<path d="M845 849 c165 -3 334 -7 375 -9 l75 -2 -60 -20 c-60 -19 -92 -22
-375 -33 -85 -3 -158 -9 -162 -13 -4 -4 25 -6 65 -4 l72 4 -28 -27 c-16 -15
-26 -29 -23 -32 2 -2 15 6 27 18 l23 23 8 -24 c6 -20 7 -19 3 8 -4 31 -3 32
32 32 34 0 35 -1 20 -18 -10 -10 -17 -24 -17 -30 0 -6 -11 -14 -25 -18 -14 -3
-25 -13 -25 -21 0 -12 2 -12 16 1 8 9 20 16 25 16 5 0 14 12 20 27 12 33 28
16 22 -25 l-4 -27 17 23 c9 12 23 22 31 22 12 0 10 -4 -5 -17 -20 -18 -41 -80
-24 -69 5 3 12 18 15 34 4 21 16 33 46 47 23 10 46 24 52 32 14 16 -2 18 -18
2 -6 -6 -30 -15 -52 -19 -31 -5 -41 -4 -46 7 -10 28 6 33 108 32 57 0 137 7
180 16 43 9 84 14 90 12 17 -6 -5 -12 -84 -25 -84 -12 -173 -66 -194 -116 -15
-36 -35 -49 -60 -40 -8 4 -15 1 -15 -5 0 -14 35 -14 61 -1 10 6 19 17 19 25 0
8 5 14 12 13 6 -2 14 8 17 21 8 32 94 79 163 90 29 5 55 7 57 6 2 -2 -18 -18
-45 -34 -34 -22 -60 -31 -89 -31 -30 0 -47 -6 -61 -21 l-19 -22 32 17 c18 9
40 16 49 16 15 0 15 -3 -4 -20 -44 -41 -85 -149 -71 -185 6 -17 8 -15 9 10 1
17 5 39 9 49 7 17 9 17 29 -9 12 -15 22 -23 22 -18 0 6 -7 16 -15 23 -23 19
-18 52 16 93 40 49 51 40 15 -12 -22 -31 -26 -43 -17 -58 9 -16 10 -15 11 10
0 15 5 27 11 27 7 0 10 -12 7 -30 -5 -36 -1 -39 11 -8 5 14 5 31 -1 42 -7 12
-6 22 1 29 6 6 11 18 11 27 0 9 20 25 45 38 34 16 45 18 45 8 0 -7 -7 -19 -15
-26 -8 -7 -13 -16 -10 -20 3 -5 -4 -11 -15 -15 -12 -4 -20 -15 -19 -28 l0 -22
9 22 c5 12 19 24 31 28 14 5 18 10 10 14 -9 6 -8 11 4 21 8 7 15 20 15 29 0
10 16 32 35 51 36 35 48 32 18 -4 -18 -21 -18 -21 5 -2 12 11 22 26 23 35 0
11 2 12 6 3 6 -15 -25 -69 -76 -131 -21 -25 -42 -57 -46 -71 -11 -36 -23 -49
-77 -76 -43 -22 -82 -64 -59 -64 5 0 12 9 16 19 6 21 64 46 77 33 4 -4 1 -20
-7 -36 -8 -15 -12 -33 -9 -38 8 -12 34 57 34 90 0 12 5 22 10 22 16 0 12 -102
-5 -134 -23 -44 -17 -55 8 -14 l23 36 22 -32 c12 -18 22 -42 22 -54 0 -11 4
-23 9 -26 18 -12 -8 77 -30 102 -21 24 -24 34 -19 82 l6 55 16 -35 c9 -19 14
-49 12 -65 l-4 -30 11 32 c10 27 8 39 -11 78 -25 51 -27 45 50 130 25 28 53
61 62 75 l18 25 -10 -27 c-5 -14 -24 -57 -43 -95 -33 -64 -35 -74 -33 -153 2
-47 -1 -90 -6 -97 -6 -7 -6 -19 1 -30 10 -17 10 -16 11 3 0 12 12 29 27 39 25
17 26 17 18 -1 -4 -11 -9 -35 -11 -54 -3 -34 -3 -34 5 -5 11 43 25 66 60 99
31 30 40 22 21 -15 -6 -11 -7 -19 -1 -19 11 0 21 24 21 50 0 10 10 40 23 67
22 47 24 49 44 36 19 -13 20 -17 8 -41 -8 -14 -24 -32 -37 -39 -13 -7 -17 -12
-10 -13 22 0 52 20 52 35 0 21 19 28 36 14 28 -23 34 -55 18 -88 -15 -30 -17
-31 -85 -31 -61 0 -72 -3 -97 -27 -15 -16 -19 -21 -7 -12 11 9 31 20 45 24
l25 8 -20 -23 c-11 -12 -32 -29 -48 -36 -15 -8 -25 -19 -22 -24 3 -4 -12 -23
-32 -40 -27 -22 -30 -28 -13 -20 14 7 39 25 55 40 17 15 41 31 55 35 24 7 24
7 8 -12 -10 -11 -18 -26 -18 -34 0 -8 -5 -20 -10 -27 -7 -8 -7 -9 1 -3 5 4 18
23 27 41 16 32 42 52 42 32 0 -19 -47 -78 -77 -97 -18 -11 -32 -26 -33 -34 0
-12 3 -12 13 1 20 28 50 26 58 -2 6 -20 7 -16 9 20 l2 45 16 -47 c9 -26 23
-53 31 -60 9 -9 8 -3 -3 19 -17 35 -22 128 -6 118 5 -3 7 -19 3 -35 -6 -31 10
-60 31 -60 6 0 3 7 -8 15 -13 10 -17 21 -12 40 6 22 9 25 21 15 10 -8 15 -9
15 -2 0 6 -9 16 -20 22 -22 12 -26 40 -8 58 20 20 28 14 28 -20 1 -32 19 -68
35 -68 5 0 0 9 -9 19 -10 11 -16 30 -14 43 l5 23 11 -25 c9 -21 11 -22 11 -6
1 11 -6 28 -15 38 -14 15 -15 20 -4 33 12 15 15 14 26 -6 6 -13 10 -30 7 -38
-3 -11 -1 -11 7 2 15 24 30 12 30 -24 0 -18 4 -28 10 -24 19 12 10 45 -20 72
-16 14 -30 34 -30 43 0 11 20 -2 60 -41 33 -31 60 -53 60 -48 0 6 -11 20 -25
33 l-24 23 27 -2 c15 -1 38 -5 51 -9 16 -6 21 -5 17 3 -4 6 -14 11 -22 11 -20
0 -64 45 -64 66 0 12 8 8 29 -15 28 -30 49 -42 36 -21 -9 14 19 12 33 -2 7 -7
12 -8 12 -2 0 5 -23 20 -52 34 -31 15 -55 34 -60 48 -7 20 -5 21 12 12 10 -5
22 -15 25 -20 3 -6 12 -10 18 -10 24 1 -35 39 -86 56 -30 9 -71 34 -96 57 -42
38 -42 39 -15 33 16 -4 30 -11 32 -15 1 -5 9 -17 17 -27 13 -18 14 -18 8 4 -3
13 -1 22 6 22 24 0 79 -29 90 -47 6 -10 10 -13 11 -8 0 15 -13 30 -35 43 -17
10 -17 11 -3 12 9 0 29 -12 44 -28 24 -24 25 -25 14 -4 -6 13 -27 30 -46 38
-19 8 -34 21 -34 29 0 13 4 14 23 4 12 -7 31 -13 43 -14 26 -1 74 -32 74 -47
0 -6 -5 -26 -11 -43 -10 -26 -8 -36 10 -65 24 -40 28 -33 6 11 -14 25 -14 33
-1 56 l14 28 11 -45 c14 -56 30 -94 36 -88 3 3 1 18 -4 34 -5 16 -12 42 -15
57 l-7 28 33 -23 c18 -13 36 -27 40 -33 4 -5 10 -7 13 -3 4 3 -6 14 -21 25
-15 10 -51 41 -79 70 -42 42 -64 55 -121 72 -61 18 -114 52 -114 74 0 12 75
-24 93 -45 19 -22 22 -17 7 12 -5 10 -27 24 -47 30 -48 16 -55 22 -58 55 l-3
26 31 -33 c18 -19 26 -26 18 -16 -21 27 2 22 28 -6 13 -14 29 -22 36 -20 7 3
16 0 21 -7 5 -8 3 -10 -7 -5 -8 4 -4 -1 8 -11 12 -10 30 -27 40 -38 10 -11 15
-16 11 -11 -17 21 -7 27 18 11 14 -9 28 -15 30 -13 4 5 -63 56 -130 100 -22
15 -48 33 -56 41 -21 20 -48 28 -55 17 -9 -15 -41 -12 -55 5 -11 13 -4 15 53
15 51 0 65 -3 61 -13 -3 -9 17 -26 57 -47 101 -54 199 -155 199 -206 0 -13 4
-26 10 -29 6 -4 7 6 4 25 -4 16 -4 30 -1 30 2 0 30 -11 61 -25 84 -37 93 -29
10 9 -43 20 -79 45 -92 64 -26 36 -27 42 -6 42 8 0 20 -14 26 -30 10 -29 52
-60 80 -60 7 1 -3 8 -22 16 -40 17 -36 13 -44 41 l-7 21 51 -19 c27 -10 61
-19 74 -19 13 0 29 -7 36 -15 7 -8 18 -15 24 -15 11 1 -26 36 -45 42 -5 2 -11
10 -12 18 -2 8 -6 20 -10 27 -10 16 69 9 90 -9 14 -11 15 -11 12 1 -3 8 -19
19 -36 25 -62 22 -46 28 59 24 59 -2 101 0 95 4 -7 4 -50 8 -97 9 -47 0 -96 5
-110 9 -25 8 -25 8 5 11 38 3 141 -1 180 -6 24 -4 26 -3 10 4 -11 5 -45 11
-75 12 -54 3 -54 3 20 10 62 5 58 6 -20 2 -194 -10 -321 1 -400 35 l-45 19
355 9 c306 8 223 9 -595 9 -554 0 -825 -2 -650 -6z m525 -29 c0 -10 -40 -21
-52 -14 -17 11 -7 21 22 22 17 0 30 -3 30 -8z m130 5 c0 -4 -7 -13 -15 -21 -8
-9 -15 -27 -15 -40 0 -23 -2 -24 -22 -12 -13 7 -31 11 -40 10 -12 -2 -15 2
-11 16 2 11 0 23 -6 26 -24 15 -8 23 49 25 33 1 60 -1 60 -4z m226 -6 c11 -19
88 -49 126 -49 20 0 40 -5 43 -11 4 -6 41 -26 83 -45 41 -19 73 -37 70 -39 -3
-3 -46 10 -96 30 -50 19 -98 35 -107 35 -9 0 -36 12 -61 26 -24 14 -44 23 -44
19 0 -4 -6 -3 -12 3 -7 6 -17 11 -23 12 -22 5 -35 13 -35 21 0 13 48 11 56 -2z
m-201 -137 c1 2 5 21 8 43 5 28 4 34 -3 20 -7 -16 -8 -12 -7 17 1 21 5 38 9
38 4 0 14 -26 23 -57 12 -42 14 -62 7 -74 -8 -13 -7 -21 7 -33 10 -9 22 -16
27 -16 5 0 1 7 -10 15 -11 8 -16 21 -13 30 6 13 11 12 46 -6 22 -11 47 -31 55
-44 16 -24 16 -25 -16 -18 -78 14 -133 38 -145 63 -15 33 -22 95 -15 123 5 15
9 3 15 -41 5 -35 10 -62 12 -60z m65 104 c0 -3 -4 -8 -10 -11 -5 -3 -10 -1
-10 4 0 6 5 11 10 11 6 0 10 -2 10 -4z m394 -31 c14 -3 28 -14 31 -25 3 -11
10 -20 15 -20 5 0 7 7 4 15 -8 21 10 19 30 -4 17 -19 17 -19 -16 -17 -31 3
-138 50 -138 61 0 3 11 3 25 0 14 -3 36 -7 49 -10z m-526 -130 l-3 -30 -18 32
c-20 38 -21 52 -5 90 l11 28 9 -45 c4 -25 7 -58 6 -75z m497 67 c84 -31 127
-61 55 -38 -25 7 -58 19 -73 25 -16 6 -38 11 -50 11 -12 0 -28 9 -35 21 -12
19 -12 20 10 14 13 -4 55 -18 93 -33z m-510 -102 c8 -9 18 -27 24 -40 7 -18 8
-9 3 35 -5 55 -4 59 11 46 33 -27 12 -107 -39 -155 -16 -14 -29 -32 -29 -39
-1 -6 -7 -11 -14 -9 -7 1 -19 -3 -27 -9 -21 -17 -28 -4 -16 30 7 21 7 40 0 65
-8 26 -8 42 0 58 10 22 11 22 11 -8 1 -16 8 -39 17 -50 15 -19 16 -19 8 1 -14
37 -16 90 -4 119 l11 30 15 -30 c9 -16 22 -36 29 -44z m256 -138 c4 -17 14
-44 24 -58 17 -26 17 -27 -1 -19 -11 4 -27 10 -37 12 -18 6 -24 22 -29 85 -4
36 -3 37 16 24 11 -7 23 -27 27 -44z m-135 -90 c-20 -19 -40 -27 -65 -27 l-36
-1 25 27 c18 20 35 27 65 28 l40 1 -29 -28z m-121 -42 c-3 -5 -12 -10 -18 -10
-7 0 -6 4 3 10 19 12 23 12 15 0z"/>
<path d="M1395 603 c24 -61 27 -74 16 -105 -10 -30 -9 -31 4 -14 8 11 15 30
15 43 0 27 -25 93 -36 93 -3 0 -3 -8 1 -17z"/>
<path d="M803 793 c15 -2 37 -2 50 0 12 2 0 4 -28 4 -27 0 -38 -2 -22 -4z"/>
<path d="M1076 744 c-22 -21 -20 -31 2 -12 9 9 24 18 32 21 12 4 12 6 -2 6 -9
1 -24 -6 -32 -15z"/>
<path d="M1225 670 c3 -5 8 -10 11 -10 2 0 4 5 4 10 0 6 -5 10 -11 10 -5 0 -7
-4 -4 -10z"/>
<path d="M1018 599 c-11 -6 -17 -21 -17 -37 1 -22 2 -23 6 -5 5 27 20 40 53
46 l25 4 -25 1 c-14 1 -33 -3 -42 -9z"/>
<path d="M1747 598 c12 -6 27 -22 32 -37 6 -17 10 -20 10 -8 1 20 -33 57 -51
56 -7 0 -3 -5 9 -11z"/>
<path d="M1576 472 c-14 -21 -26 -41 -26 -45 0 -4 15 -6 33 -6 30 2 30 2 4 6
l-27 4 26 35 c15 19 25 37 22 39 -3 3 -17 -12 -32 -33z"/>
</g>
</svg>
