<?xml version="1.0" encoding="utf-8"?>
<!-- Generator: Adobe Illustrator 24.0.3, SVG Export Plug-In . SVG Version: 6.00 Build 0)  -->
<svg version="1.1" id="Calque_1" xmlns="http://www.w3.org/2000/svg" xmlns:xlink="http://www.w3.org/1999/xlink" x="0px" y="0px"
	 viewBox="0 0 950 600" style="enable-background:new 0 0 950 600;" xml:space="preserve">
<style type="text/css">
	.st0{fill:#1ABC9C;}
	.st1{fill:#F9F9F9;}
</style>
<rect class="st0" width="950" height="600"/>
<g>
	<path class="st1" d="M680.57,192.23c-6.27-17.68-23.38-30.22-43.34-30.22c-4.56,0-9.12,0.57-13.12,1.71
		c-11.4-18.25-31.93-30.22-54.74-30.22c-7.41,0-14.83,1.14-21.1,3.42c-8.55-27.37-34.21-46.76-64.44-46.76
		c-9.12,0-18.25,1.71-26.23,5.13c-2.28-3.99-4.56-7.98-6.84-11.4c-5.7-8.55-13.12-15.4-21.1-21.67
		c-17.68-11.97-38.21-18.82-59.3-18.82c-13.12,0-25.66,2.28-37.64,7.41c-11.4,4.56-22.24,11.97-30.79,20.53
		c-9.12,8.55-15.97,19.39-21.1,30.79c-5.13,11.97-7.41,24.52-7.41,37.64c0,1.14,0,2.28,0,3.42c-8.55,3.99-15.97,9.69-22.24,17.11
		c-8.55,10.83-13.69,24.52-13.69,38.21c0,16.54,6.27,31.36,18.25,43.34c11.4,11.4,27.37,17.68,43.34,17.68h24.52
		c-1.14-4.56-2.28-9.12-2.85-13.69h-21.67c-26.23,0-47.33-21.1-47.33-47.33c0-13.12,5.7-25.09,14.26-33.64
		c0.57-0.57,1.14-1.14,1.71-1.14c1.71-1.14,2.85-2.28,4.56-3.42c5.13-3.42,10.26-5.7,16.54-7.41c-0.57-2.28-0.57-3.99-0.57-6.27
		c0-1.14,0-2.28,0-3.42c0-1.14,0-2.28,0-3.42c0-12.55,2.85-25.09,7.98-35.92c0.57-0.57,0.57-1.14,1.14-1.71
		c2.28-3.99,4.56-7.98,7.41-11.97c0.57-0.57,0.57-1.14,1.14-1.71c0.57-1.14,1.71-2.28,2.28-2.85c2.85-2.85,5.7-5.7,8.55-8.55
		c14.83-12.55,33.64-19.96,54.74-19.96c22.24,0,42.77,8.55,57.59,22.81c0.57,0.57,1.71,1.71,2.28,2.28
		c4.56,4.56,8.55,9.69,11.97,15.4s6.27,11.4,7.98,18.25c4.56-3.42,9.69-6.27,15.4-8.55c5.7-1.71,11.4-2.85,17.68-2.85
		c6.84,0,13.69,1.14,19.39,3.42c13.69,5.13,24.52,15.97,30.22,29.08c0.57,1.71,1.14,2.85,1.71,4.56c0,0.57,0.57,1.14,0.57,1.71
		c-17.68,10.83-29.65,30.22-30.22,52.46c-13.12,7.41-21.67,21.1-21.67,37.06c0,4.56,0.57,8.55,1.71,12.55h-25.09
		c0.57,2.28,0.57,5.13,0.57,7.98c0,20.53-16.54,37.64-37.64,37.64s-37.64-16.54-37.64-37.64c0-2.85,0.57-5.13,0.57-7.98h-38.21
		c1.14,4.56,2.28,9.12,3.42,13.69h19.96c2.85,25.66,25.09,45.62,51.32,45.62s48.47-19.96,51.32-45.62h17.11v-0.57
		c7.98,10.26,19.96,16.54,34.21,16.54h143.13c23.95,0,42.77-18.82,42.77-42.77C712.5,213.33,698.81,196.79,680.57,192.23z
		 M669.73,261.22h-143.7c-3.42,0-6.84-0.57-9.69-1.71c-6.84-2.28-12.54-7.41-15.4-13.69c-1.71-3.99-2.85-7.98-2.85-12.55
		c0-13.12,9.69-24.52,22.24-27.37c-0.57-2.28-0.57-5.13-0.57-7.98c0-20.53,12.55-37.64,30.22-45.62c0.57,0,0.57,0,1.14-0.57
		c0.57,0,1.14-0.57,1.14-0.57c0.57,0,0.57,0,1.14-0.57c0.57,0,0.57,0,1.14-0.57c0.57,0,0.57,0,1.14-0.57c0.57,0,1.14,0,1.14-0.57
		c0.57,0,0.57,0,0.57,0c0.57,0,1.14,0,1.71-0.57h0.57c0.57,0,1.14,0,1.71-0.57h0.57c0.57,0,1.14,0,2.28,0h0.57c0.57,0,1.71,0,2.28,0
		c0,0,0,0,0.57,0c0.57,0,1.71,0,2.28,0c0.57,0,1.71,0,2.28,0c21.67,1.14,39.92,15.4,45.62,35.35c5.7-4.56,12.54-6.84,19.96-6.84
		c16.54,0,30.22,12.55,31.93,28.51l0,0c15.97,0,28.51,12.55,28.51,28.51C698.24,248.68,685.13,261.22,669.73,261.22z"/>
	<path class="st1" d="M458.75,367.29c-17.11,0-30.79-13.69-30.79-30.79s13.69-30.79,30.79-30.79s30.79,13.69,30.79,30.79
		S475.86,367.29,458.75,367.29z M458.75,319.39c-9.12,0-17.11,7.41-17.11,17.11s7.41,17.11,17.11,17.11
		c9.12,0,17.11-7.41,17.11-17.11S467.87,319.39,458.75,319.39z"/>
	<path class="st1" d="M521.47,370.14c-13.12,0-23.95-10.83-23.95-23.95c0-13.12,10.83-23.95,23.95-23.95s23.95,10.83,23.95,23.95
		C544.85,359.87,534.02,370.14,521.47,370.14z M521.47,337.06c-5.13,0-9.69,3.99-9.69,9.69c0,5.7,3.99,9.69,9.69,9.69
		s9.69-3.99,9.69-9.69C531.17,341.06,526.61,337.06,521.47,337.06z"/>
	<g>
		<g>
			<path class="st1" d="M712.5,556.6H500.38V383.25h42.77v87.24l55.88-26.23v26.23l56.45-26.23v26.23l57.02-26.23L712.5,556.6
				L712.5,556.6z M514.63,542.35h183.61v-75.84l-57.02,26.23v-26.23l-56.45,26.23v-26.23l-55.88,26.23v-95.23h-14.26V542.35z"/>
		</g>
	</g>
</g>
</svg>
