<?xml version="1.0" encoding="utf-8"?>
<!-- Generator: Adobe Illustrator 24.0.3, SVG Export Plug-In . SVG Version: 6.00 Build 0)  -->
<svg version="1.1" id="Calque_1" xmlns="http://www.w3.org/2000/svg" xmlns:xlink="http://www.w3.org/1999/xlink" x="0px" y="0px"
	 viewBox="0 0 950 600" style="enable-background:new 0 0 950 600;" xml:space="preserve">
<style type="text/css">
	.st0{fill:#1ABC9C;}
	.st1{fill:#FDFFFF;}
</style>
<rect class="st0" width="950" height="600"/>
<g transform="translate(0,-271.59998)">
	<path class="st1" d="M429.2,321.61c-4.6,0.17-8.69,2.98-10.5,7.21c-35.04,81.76-75.48,127.9-108.53,169.96s-59.1,81.56-59.1,144.25
		c0,98.48,80.09,178.57,178.57,178.57s178.57-80.09,178.57-178.57c0-62.7-26.05-102.19-59.1-144.25
		c-33.05-42.06-73.49-88.2-108.53-169.96C438.64,324.29,434.12,321.43,429.2,321.61z M429.64,358.08
		c33.9,70.85,71.42,118.08,100.75,155.42c32.43,41.27,54,73.19,54,129.53c0,85.61-69.14,154.76-154.76,154.76
		s-154.76-69.14-154.76-154.76c0-56.35,21.57-88.26,54-129.53C358.22,476.16,395.74,428.93,429.64,358.08z"/>
	<path class="st1" d="M310.39,630.94c-6.57,0.1-11.83,5.5-11.73,12.08c0,0,0,0,0,0.01c0,72.18,58.8,130.94,130.98,130.94
		c6.56,0.38,12.2-4.63,12.58-11.19c0.38-6.56-4.63-12.2-11.19-12.58c-0.46-0.03-0.93-0.03-1.39,0
		c-59.31,0-107.17-47.85-107.17-107.17c0.1-6.57-5.15-11.98-11.73-12.08C310.63,630.94,310.51,630.94,310.39,630.94z"/>
	<path class="st1" d="M560.58,321.61c-26.16,0-47.63,21.47-47.63,47.63c0,26.16,21.47,47.59,47.63,47.59
		c26.16,0,47.63-21.43,47.63-47.59C608.21,343.08,586.74,321.61,560.58,321.61z M560.58,345.42c13.29,0,23.82,10.52,23.82,23.82
		s-10.52,23.82-23.82,23.82s-23.82-10.52-23.82-23.82S547.29,345.42,560.58,345.42z"/>
	<path class="st1" d="M667.71,393.05c-32.73,0-59.49,26.76-59.49,59.49c0,32.73,26.76,59.54,59.49,59.54s59.54-26.81,59.54-59.54
		S700.44,393.05,667.71,393.05z M667.71,416.83c19.87,0,35.72,15.86,35.72,35.72c0,19.87-15.86,35.72-35.72,35.72
		c-19.87,0-35.68-15.86-35.68-35.72C632.03,432.68,647.84,416.83,667.71,416.83z"/>
</g>
</svg>
