<?xml version="1.0" encoding="utf-8"?>
<!-- Generator: Adobe Illustrator 24.0.3, SVG Export Plug-In . SVG Version: 6.00 Build 0)  -->
<svg version="1.1" id="Calque_1" xmlns="http://www.w3.org/2000/svg" xmlns:xlink="http://www.w3.org/1999/xlink" x="0px" y="0px"
	 viewBox="0 0 950 600" style="enable-background:new 0 0 950 600;" xml:space="preserve">
<style type="text/css">
	.st0{fill:#1ABC9C;}
	.st1{fill-rule:evenodd;clip-rule:evenodd;fill:#F9F9F9;}
</style>
<circle class="st0" cx="475" cy="300" r="299.23"/>
<path class="st1" d="M567.83,75H382.17c-16.74,0-30.43,13.69-30.43,30.43v389.14c0,16.74,13.69,30.43,30.43,30.43h185.66
	c16.74,0,30.44-13.69,30.44-30.43V105.43C598.26,88.69,584.57,75,567.83,75z M475,498.83c-10.47,0-19-8.54-19-19
	c0-10.46,8.54-19,19-19s19,8.54,19,19C493.99,490.29,485.46,498.83,475,498.83z M579.69,441.42H370.3v-326.8h209.39
	C579.69,114.62,579.69,441.42,579.69,441.42z"/>
</svg>
