<?xml version="1.0" encoding="utf-8"?>
<!-- Generator: Adobe Illustrator 24.0.3, SVG Export Plug-In . SVG Version: 6.00 Build 0)  -->
<svg version="1.1" id="Calque_1" xmlns="http://www.w3.org/2000/svg" xmlns:xlink="http://www.w3.org/1999/xlink" x="0px" y="0px"
	 viewBox="0 0 950 600" style="enable-background:new 0 0 950 600;" xml:space="preserve">
<style type="text/css">
	.st0{fill:#1ABC9C;}
	.st1{fill:#F9F9F9;}
</style>
<rect class="st0" width="950" height="600"/>
<path class="st1" d="M736.35,396.06c-9.32-7.63-21.18-11.02-33.05-9.32l-98.29,14.4V252.02c0,0,0,0,0-0.85v-53.38
	c12.71-3.39,59.31-16.1,86.43-38.98c42.37-35.59,39.82-88.97,39.82-91.51c0-1.69-0.85-2.54-1.69-3.39c-0.85-0.85-2.54-0.85-4.24,0
	c0,0-32.2,13.56-76.26,24.57C577.9,107.13,594,188.47,595.7,194.4v12.71c-9.32-22.88-27.96-47.45-66.94-48.3
	c-44.91-0.85-78.8-6.78-78.8-6.78c-1.69,0-2.54,0-3.39,0.85s-1.69,2.54-0.85,3.39c0,2.54,10.17,55.08,59.31,80.5
	c30.5,16.1,77.95,18.64,92.36,18.64V402l-38.13,5.93c9.32-8.47,14.4-20.34,14.4-33.89c0-12.71-5.08-24.57-14.4-33.89
	c-9.32-9.32-21.18-13.56-33.89-13.56c-38.13,0-86.43-0.85-114.39-11.86c-46.6-17.79-95.75,0-112.69,7.63v-27.96
	c0-2.54-1.69-4.24-4.24-4.24h-55.92c-2.54,0-4.24,1.69-4.24,4.24c0,2.54,1.69,4.24,4.24,4.24h50.84v229.62h-80.5V294.39
	c0-2.54-1.69-4.24-4.24-4.24s-4.24,1.69-4.24,4.24v238.1c0,2.54,1.69,4.24,4.24,4.24h88.97c2.54,0,4.24-1.69,4.24-4.24V332.52
	c11.02-5.08,62.7-27.96,109.3-9.32c29.66,11.86,78.8,12.71,117.78,12.71l0,0c10.17,0,20.34,4.24,27.11,11.02
	c7.63,7.63,11.86,16.95,11.86,27.96c0,17.79-11.86,33.05-28.81,37.28l-9.32,0.85h-77.11c-2.54,0-4.24,1.69-4.24,4.24
	s1.69,4.24,4.24,4.24h77.11c4.24,0,9.32-0.85,13.56-1.69l61.01-9.32h0.85c0.85,0,1.69,0,2.54-0.85L705,394.37
	c9.32-1.69,18.64,1.69,26.27,7.63c6.78,5.93,11.02,15.25,11.02,24.57c0,13.56-8.47,26.27-22.03,30.5l-111,40.67
	c-55.92,19.49-116.93,25.42-175.39,16.1L327.94,496.9c-2.54,0-4.24,0.85-5.08,3.39c0,2.54,0.85,4.24,3.39,5.08l105.91,16.95
	c18.64,3.39,38.13,4.24,56.77,4.24c41.52,0,83.04-6.78,122.86-21.18l111-39.82c16.1-5.93,27.11-21.18,27.11-38.98
	C750.76,415.55,745.67,403.69,736.35,396.06z M651.62,96.96c33.05-8.47,60.16-18.64,71.17-22.88c-0.85,14.4-5.93,52.53-37.28,78.8
	c-22.03,18.64-58.46,30.5-76.26,35.59c7.63-11.86,22.03-32.2,39.82-44.06c1.69-1.69,2.54-4.24,0.85-5.93s-4.24-2.54-5.93-0.85
	c-18.64,12.71-33.89,33.89-41.52,45.76C599.93,160.51,600.78,110.52,651.62,96.96z M455.04,161.36c11.86,1.69,39.82,5.93,74.56,6.78
	c53.38,1.69,64.4,49.99,66.94,72.87c-10.17-10.17-29.66-27.11-50.84-35.59c-2.54-0.85-4.24,0-5.93,2.54c-0.85,2.54,0,4.24,2.54,5.93
	c19.49,7.63,38.13,24.57,48.3,34.74c-18.64-0.85-56.77-4.24-82.19-17.79C472.84,211.35,459.28,175.76,455.04,161.36z"/>
</svg>
