<?xml version="1.0" encoding="utf-8"?>
<!-- Generator: Adobe Illustrator 24.0.3, SVG Export Plug-In . SVG Version: 6.00 Build 0)  -->
<svg version="1.1" id="Calque_1" xmlns="http://www.w3.org/2000/svg" xmlns:xlink="http://www.w3.org/1999/xlink" x="0px" y="0px"
	 viewBox="0 0 950 600" style="enable-background:new 0 0 950 600;" xml:space="preserve">
<style type="text/css">
	.st0{fill:#1ABC9C;}
	.st1{fill:#F9F9F9;}
</style>
<circle class="st0" cx="475" cy="300" r="299.23"/>
<g>
	<path class="st1" d="M674.99,154.77c0.47-14.88-11.22-27.32-26.1-27.79c-0.46-0.01-0.92-0.02-1.38-0.01
		c-115.01,0.21-230,0.21-344.98,0c-14.89-0.32-27.21,11.49-27.52,26.38c-0.01,0.46-0.01,0.92,0.01,1.38
		c0.45,77.01,0.45,154.02,0,231.03c-0.4,15.06,11.48,27.6,26.54,28c0.49,0.01,0.97,0.01,1.46,0c57.12-0.52,114.23,0,171.39,0
		s115.15-0.28,172.71,0c14.95,0.44,27.43-11.31,27.87-26.26c0.01-0.43,0.02-0.86,0.01-1.3
		C674.56,309.06,674.56,231.91,674.99,154.77z M475,397.4c-6.23,0-11.28-5.05-11.28-11.28c0-6.23,5.05-11.28,11.28-11.28
		s11.28,5.05,11.28,11.28l0,0C486.28,392.35,481.23,397.4,475,397.4z M658.99,340.96c0,8.84-7.16,16-16,16c0,0,0,0,0,0H307.01
		c-8.84,0-16-7.16-16-16V159.17c0-8.84,7.16-16,16-16h335.98c8.84,0,16,7.16,16,16V340.96z"/>
	<path class="st1" d="M511.92,432.27c-0.36-3.76-0.72-7.56-1.08-11.48H439c-0.36,4-0.72,7.44-1.04,10.92
		c-1.64,16.76-9.36,24.6-26.04,26c-8.32,0.68-16.64,0.92-25.24,1.36v13.96h176.31v-13.96c-8.76-0.44-17.12-0.64-25.48-1.36
		C521.52,456.35,513.52,448.27,511.92,432.27z"/>
</g>
</svg>
