<?xml version="1.0" standalone="no"?>
<!DOCTYPE svg PUBLIC "-//W3C//DTD SVG 20010904//EN"
 "http://www.w3.org/TR/2001/REC-SVG-20010904/DTD/svg10.dtd">
<svg version="1.0" xmlns="http://www.w3.org/2000/svg"
 width="300.000000pt" height="120.000000pt" viewBox="0 0 300.000000 120.000000"
 preserveAspectRatio="xMidYMid meet">
<metadata>
Created by potrace 1.10, written by Peter Selinger 2001-2011
</metadata>
<g transform="translate(0.000000,120.000000) scale(0.100000,-0.100000)"
fill="#3cb371" stroke="none">
<path d="M2558 1044 c-194 -117 -208 -127 -208 -154 l0 -29 -755 -1 -755 0 0
48 c0 26 -5 53 -12 60 -17 17 -249 17 -266 0 -7 -7 -12 -38 -12 -70 l0 -58
-240 0 -240 0 0 -190 0 -190 280 0 280 0 0 50 0 50 89 0 c122 0 121 -1 121
156 l0 124 746 0 c761 -1 774 0 774 36 0 19 6 18 45 -11 18 -14 66 -45 106
-68 73 -42 74 -42 73 -82 -1 -22 -2 -154 -3 -294 -1 -246 -2 -254 -19 -238
-10 10 -22 17 -25 17 -10 0 -141 85 -160 104 -15 15 -17 47 -19 279 l-3 262
-2 -232 -3 -233 -565 -2 c-311 -2 -565 1 -565 5 0 4 -9 3 -19 -3 -11 -5 -21
-10 -23 -10 -2 0 -2 75 0 167 l3 166 -32 34 -33 33 -110 -1 -111 0 -24 -30
c-23 -30 -24 -33 -25 -282 l-1 -252 165 0 165 0 0 78 c0 42 1 77 3 77 2 0 12
-5 23 -10 13 -7 19 -7 19 0 0 7 182 10 565 10 l565 0 0 -29 c0 -33 43 -69 166
-138 l71 -40 204 124 c177 107 228 143 205 143 -3 0 -29 -15 -58 -34 -29 -18
-71 -43 -93 -55 -22 -12 -52 -29 -67 -39 -14 -9 -56 -34 -92 -55 -36 -21 -68
-43 -72 -49 -16 -26 -19 31 -14 298 l5 278 198 120 c108 66 197 125 197 131 0
8 -202 142 -229 152 -3 1 -99 -54 -213 -123z m249 83 c33 -27 93 -65 145 -92
21 -11 34 -22 30 -26 -10 -10 -369 -228 -385 -235 -15 -5 -115 49 -192 104
l-47 33 199 119 c109 65 203 119 210 120 6 0 24 -10 40 -23z m-1997 -187 c0
-19 -7 -20 -115 -20 -89 0 -115 3 -115 13 0 24 12 27 122 27 101 0 108 -1 108
-20z m0 -170 l0 -130 -90 0 -90 0 0 100 c0 100 0 100 -25 100 -21 0 -25 5 -25
30 l0 30 115 0 115 0 0 -130z m-260 -64 c0 -120 9 -146 48 -146 14 0 17 -7 14
-40 l-4 -40 -264 0 -264 0 0 170 0 170 235 0 235 0 0 -114z m61 102 c-1 -5 -1
-44 -1 -88 0 -64 -3 -80 -15 -80 -12 0 -15 17 -15 91 0 76 2 90 16 87 8 -2 15
-6 15 -10z m522 -76 l27 -28 0 -242 0 -242 -150 0 -150 0 0 242 0 242 27 28
c26 27 31 28 123 28 92 0 97 -1 123 -28z m-517 -122 c0 -13 -7 -20 -18 -20
-11 0 -18 7 -18 20 0 13 7 20 18 20 11 0 18 -7 18 -20z m194 0 c0 -19 -7 -20
-90 -20 -83 0 -90 1 -90 20 0 19 7 20 90 20 83 0 90 -1 90 -20z"/>
<path d="M683 933 c9 -2 23 -2 30 0 6 3 -1 5 -18 5 -16 0 -22 -2 -12 -5z"/>
<path d="M119 773 c-13 -16 -12 -17 4 -4 9 7 17 15 17 17 0 8 -8 3 -21 -13z"/>
<path d="M170 725 c-71 -75 -60 -79 15 -4 33 32 55 59 49 59 -6 0 -34 -25 -64
-55z"/>
<path d="M225 670 c-60 -60 -105 -110 -100 -110 6 0 59 50 120 110 60 61 105
110 100 110 -6 0 -60 -49 -120 -110z"/>
<path d="M309 649 c-72 -72 -128 -133 -125 -136 3 -3 67 56 143 131 76 75 132
136 125 136 -7 0 -71 -59 -143 -131z"/>
<path d="M411 645 c-57 -58 -102 -108 -98 -111 7 -7 207 193 207 207 0 5 -1 9
-2 9 -2 0 -50 -47 -107 -105z"/>
<path d="M455 580 c-27 -27 -47 -52 -44 -54 3 -3 27 17 53 45 27 27 47 51 45
54 -3 2 -27 -18 -54 -45z"/>
<path d="M515 530 c-10 -11 -14 -20 -8 -20 5 0 18 9 28 20 10 11 14 20 8 20
-5 0 -18 -9 -28 -20z"/>
<path d="M1013 673 l-123 -4 0 -34 0 -35 119 0 119 0 4 40 c2 22 3 39 3 38 0
-1 -55 -4 -122 -5z m102 -38 c0 -19 -8 -20 -107 -23 l-108 -3 0 26 0 26 108
-3 c99 -3 107 -4 107 -23z"/>
<path d="M888 545 l-4 -35 123 0 123 0 0 35 0 35 -119 0 -119 0 -4 -35z m232
5 c0 -19 -7 -20 -110 -20 -103 0 -110 1 -110 20 0 19 7 20 110 20 103 0 110
-1 110 -20z"/>
<path d="M960 445 l0 -35 85 0 85 0 0 35 0 35 -85 0 -85 0 0 -35z m160 6 c0
-17 -9 -20 -67 -23 -73 -4 -89 1 -80 26 5 13 22 16 77 16 62 0 70 -2 70 -19z"/>
<path d="M894 456 c-9 -24 4 -48 23 -44 12 2 18 12 18 28 0 29 -32 41 -41 16z
m36 -16 c0 -5 -7 -10 -15 -10 -8 0 -15 5 -15 10 0 6 7 10 15 10 8 0 15 -4 15
-10z"/>
<path d="M1130 326 c0 -50 -4 -76 -12 -79 -8 -3 -6 -6 5 -6 15 -1 17 9 17 79
0 44 -2 80 -5 80 -3 0 -5 -33 -5 -74z"/>
<path d="M882 308 c-2 -65 -1 -68 21 -67 16 1 17 3 5 6 -13 3 -18 18 -21 66
l-3 62 -2 -67z"/>
<path d="M963 300 c0 -36 2 -50 4 -32 2 17 2 47 0 65 -2 17 -4 3 -4 -33z"/>
<path d="M993 300 c0 -36 2 -50 4 -32 2 17 2 47 0 65 -2 17 -4 3 -4 -33z"/>
<path d="M1023 300 c0 -36 2 -50 4 -32 2 17 2 47 0 65 -2 17 -4 3 -4 -33z"/>
<path d="M1048 300 c-1 -33 0 -60 5 -60 4 0 7 27 7 60 0 77 -7 77 -12 0z"/>
<path d="M1076 302 c-4 -29 -5 -56 -2 -59 12 -13 17 6 14 58 l-3 54 -9 -53z"/>
<path d="M933 290 c0 -30 2 -43 4 -27 2 15 2 39 0 55 -2 15 -4 2 -4 -28z"/>
<path d="M685 610 c-3 -5 1 -10 9 -10 9 0 16 5 16 10 0 6 -4 10 -9 10 -6 0
-13 -4 -16 -10z"/>
<path d="M45 1109 c-27 -3 220 -7 549 -7 330 -1 597 0 594 3 -8 8 -1081 11
-1143 4z"/>
<path d="M1187 1075 c-4 -8 -2 -17 3 -20 6 -4 10 3 10 14 0 25 -6 27 -13 6z"/>
<path d="M1187 1033 c-2 -5 0 -21 4 -38 7 -29 7 -29 8 8 1 35 -3 46 -12 30z"/>
<path d="M1088 963 c6 -2 18 -2 25 0 6 3 1 5 -13 5 -14 0 -19 -2 -12 -5z"/>
<path d="M137 910 c-23 -22 -37 -40 -32 -40 6 0 29 18 50 40 51 52 37 52 -18
0z"/>
<path d="M247 910 c-23 -22 -37 -40 -32 -40 6 0 29 18 50 40 51 52 37 52 -18
0z"/>
<path d="M1396 924 c-4 -15 -5 -29 -1 -32 3 -3 5 3 5 14 1 18 2 18 14 2 11
-15 13 -14 13 12 0 37 -22 40 -31 4z"/>
<path d="M1637 942 c-8 -16 -1 -46 12 -50 10 -3 12 0 7 13 -4 10 -2 21 4 25 8
5 7 9 -4 13 -8 3 -17 3 -19 -1z"/>
<path d="M46 925 c-9 -26 -7 -32 5 -12 6 10 9 21 6 23 -2 3 -7 -2 -11 -11z"/>
<path d="M370 930 c0 -6 -12 -22 -27 -35 -16 -13 -25 -25 -21 -25 4 0 23 16
44 35 25 24 32 35 20 35 -9 0 -16 -5 -16 -10z"/>
<path d="M482 928 c-7 -7 -12 -16 -12 -21 0 -5 7 -1 16 8 9 9 14 18 12 20 -2
3 -10 -1 -16 -7z"/>
<path d="M1190 925 c0 -8 4 -15 10 -15 5 0 7 7 4 15 -4 8 -8 15 -10 15 -2 0
-4 -7 -4 -15z"/>
<path d="M1443 924 c-3 -8 -1 -20 6 -27 13 -13 16 -10 25 21 6 16 3 22 -9 22
-8 0 -18 -7 -22 -16z"/>
<path d="M1490 914 c0 -14 4 -23 9 -20 5 4 12 0 14 -6 3 -7 6 -3 6 10 1 13 -3
20 -9 17 -5 -3 -10 -1 -10 5 0 7 7 10 15 6 8 -3 15 -1 15 4 0 6 -9 10 -20 10
-15 0 -20 -7 -20 -26z"/>
<path d="M1536 924 c-3 -9 -4 -20 -1 -24 9 -14 35 0 36 19 0 11 3 9 9 -6 5
-13 15 -23 22 -23 10 0 10 2 0 9 -11 7 -11 9 2 14 27 10 18 26 -14 25 -18 -1
-30 -6 -30 -15 0 -7 -4 -13 -10 -13 -5 0 -7 7 -4 15 4 8 4 15 1 15 -3 0 -8 -7
-11 -16z"/>
<path d="M1676 924 c-3 -9 -4 -20 0 -25 7 -13 34 -11 34 2 0 5 -4 8 -8 5 -5
-3 -9 1 -9 8 0 8 7 12 15 8 10 -3 13 -1 8 6 -10 17 -33 15 -40 -4z"/>
<path d="M446 895 c-3 -8 -1 -15 4 -15 6 0 10 7 10 15 0 8 -2 15 -4 15 -2 0
-6 -7 -10 -15z"/>
<path d="M2370 806 c0 -27 30 -52 128 -109 l62 -36 0 33 c0 27 -5 36 -28 45
-15 6 -55 30 -87 51 -33 22 -63 40 -67 40 -5 0 -8 -11 -8 -24z m180 -109 c0
-15 -3 -16 -22 -6 -68 35 -148 95 -148 110 0 25 169 -79 170 -104z"/>
<path d="M1193 770 c0 -25 2 -35 4 -22 2 12 2 32 0 45 -2 12 -4 2 -4 -23z"/>
<path d="M2452 618 c-16 -16 -15 -33 4 -48 12 -11 18 -11 30 2 13 12 14 20 5
37 -13 24 -22 26 -39 9z m31 -13 c8 -18 -11 -31 -25 -17 -11 11 -3 32 12 32 4
0 10 -7 13 -15z"/>
<path d="M2916 550 c-57 -37 -85 -75 -48 -63 13 3 13 1 -2 -11 -15 -12 -16
-16 -5 -16 12 0 12 -2 -1 -10 -13 -9 -13 -10 0 -10 13 0 13 -1 0 -10 -13 -9
-13 -10 0 -10 13 0 13 -1 0 -10 -13 -9 -13 -10 0 -10 13 0 13 -1 0 -10 -13 -9
-13 -10 0 -10 13 0 13 -1 0 -10 -8 -5 -12 -11 -10 -13 3 -3 34 15 70 39 36 24
58 44 50 44 -13 0 -13 1 0 10 13 9 13 10 0 10 -13 0 -13 1 0 10 13 9 13 10 0
10 -9 0 -11 3 -4 8 7 5 16 103 9 102 0 0 -27 -18 -59 -40z m48 -17 c-1 -21 -3
-39 -4 -40 -1 -2 -3 -16 -4 -33 -1 -25 -27 -59 -47 -60 -11 0 -3 54 9 58 6 2
10 -5 7 -17 -3 -14 0 -18 12 -14 8 3 11 9 6 12 -14 10 -9 51 7 62 12 9 11 10
-5 5 -19 -6 -19 -5 -2 8 13 10 15 15 5 19 -17 6 -50 -11 -43 -23 8 -13 -11
-21 -30 -14 -13 6 -5 14 36 40 29 19 54 34 54 34 1 0 0 -17 -1 -37z m-29 -13
c-3 -5 -12 -10 -18 -10 -7 0 -6 4 3 10 19 12 23 12 15 0z m-15 -30 c-13 -9
-13 -10 0 -10 8 0 2 -9 -15 -20 -17 -11 -23 -20 -15 -20 13 0 13 -1 0 -10 -8
-5 -10 -10 -3 -10 13 0 11 -32 -3 -37 -6 -2 -10 17 -9 42 0 43 21 74 50 75 6
0 3 -5 -5 -10z"/>
<path d="M2890 470 c-9 -6 -10 -10 -3 -10 6 0 15 5 18 10 8 12 4 12 -15 0z"/>
<path d="M2374 446 l-1 -103 61 -41 c34 -22 76 -48 94 -56 31 -16 32 -16 32 6
0 17 -2 20 -9 9 -7 -12 -18 -9 -58 14 -77 45 -112 75 -106 91 4 10 14 7 46
-15 23 -15 60 -38 83 -49 l41 -21 2 79 2 79 -33 17 c-18 9 -59 34 -90 55 -32
22 -59 39 -60 39 -2 0 -4 -47 -4 -104z m176 -32 c0 -19 -7 -18 -59 13 -73 42
-110 73 -105 88 7 17 164 -81 164 -101z m-27 -18 c25 -15 38 -46 18 -46 -5 0
-43 22 -85 50 -53 34 -74 54 -70 64 5 12 16 9 57 -18 29 -18 64 -40 80 -50z
m8 -51 c18 -6 28 -45 12 -45 -5 0 -43 22 -85 50 -54 34 -76 54 -72 64 4 11 18
6 66 -24 33 -22 69 -42 79 -45z"/>
<path d="M1667 452 c-22 -24 -22 -52 1 -52 13 0 14 2 3 9 -10 7 -11 9 -1 13 7
2 15 14 17 26 4 27 1 27 -20 4z"/>
<path d="M3 445 c6 -16 672 -19 685 -3 8 11 -59 13 -339 13 -228 0 -348 -3
-346 -10z"/>
<path d="M1606 444 c-3 -9 -6 -23 -5 -32 0 -11 2 -13 6 -4 3 9 9 10 17 2 10
-7 13 -3 14 20 1 32 -21 42 -32 14z"/>
<path d="M1700 431 c-18 -34 -12 -45 15 -27 14 9 25 12 25 6 0 -15 30 -12 36
5 9 22 -5 38 -21 25 -9 -8 -15 -8 -20 0 -10 16 -23 12 -35 -9z m20 -6 c0 -8
-4 -15 -10 -15 -5 0 -7 7 -4 15 4 8 8 15 10 15 2 0 4 -7 4 -15z m46 -12 c-10
-10 -19 5 -10 18 6 11 8 11 12 0 2 -7 1 -15 -2 -18z"/>
<path d="M1791 422 c0 -26 1 -26 9 -4 12 28 24 29 15 1 -5 -15 -4 -19 4 -14
17 10 9 38 -11 41 -14 2 -18 -5 -17 -24z"/>
<path d="M1844 439 c-3 -6 -1 -15 6 -19 10 -6 9 -9 -1 -13 -10 -4 -9 -6 4 -6
19 -1 23 14 6 25 -8 4 -7 9 2 15 10 6 10 9 2 9 -6 0 -15 -5 -19 -11z"/>
<path d="M1890 435 c-14 -17 -5 -35 18 -34 14 0 13 2 -3 9 -17 7 -17 9 -2 9 9
1 17 8 17 16 0 19 -14 19 -30 0z"/>
<path d="M50 380 c-6 -11 -8 -20 -6 -20 3 0 10 9 16 20 6 11 8 20 6 20 -3 0
-10 -9 -16 -20z"/>
<path d="M150 377 c-14 -12 -36 -35 -50 -52 -15 -19 -6 -13 25 15 27 25 52 46
54 48 2 1 2 4 0 6 -2 2 -15 -6 -29 -17z"/>
<path d="M242 365 c-20 -19 -32 -34 -27 -34 11 0 43 26 64 52 23 28 3 19 -37
-18z"/>
<path d="M345 359 c-22 -23 -31 -37 -20 -31 26 13 82 72 69 72 -6 0 -28 -19
-49 -41z"/>
<path d="M444 348 c-34 -35 -40 -45 -19 -31 37 26 80 71 74 78 -3 2 -27 -19
-55 -47z"/>
<path d="M560 355 c-46 -48 -34 -51 14 -3 21 21 34 38 29 38 -5 0 -24 -16 -43
-35z"/>
<path d="M639 323 c-13 -16 -12 -17 4 -4 9 7 17 15 17 17 0 8 -8 3 -21 -13z"/>
<path d="M2 184 c8 -7 828 -8 835 0 4 3 -184 6 -417 6 -233 0 -421 -2 -418 -6z"/>
<path d="M360 75 c-16 -19 -6 -45 17 -44 17 1 17 2 1 6 -22 5 -24 33 -3 33 8
0 15 5 15 10 0 15 -16 12 -30 -5z"/>
<path d="M405 60 c0 -21 5 -30 16 -30 12 0 14 7 11 30 -2 17 -9 30 -16 30 -6
0 -11 -13 -11 -30z"/>
<path d="M459 83 c0 -5 -2 -18 -3 -30 -2 -13 3 -23 9 -23 7 0 10 11 7 30 -4
28 -11 40 -13 23z"/>
<path d="M599 89 c-7 -23 -4 -51 7 -60 11 -9 12 -5 9 21 -3 28 -13 51 -16 39z"/>
<path d="M2475 70 c-4 -6 -2 -17 5 -24 8 -11 8 -15 -2 -19 -7 -2 7 -4 32 -4
25 0 39 2 33 4 -7 3 -13 9 -13 14 0 6 5 7 10 4 6 -3 10 -2 10 4 0 17 -17 21
-30 6 -12 -14 -40 -10 -40 7 0 5 5 6 10 3 6 -3 10 -1 10 4 0 14 -17 14 -25 1z"/>
<path d="M495 60 c-9 -14 3 -30 23 -29 11 0 12 3 5 6 -7 2 -13 9 -13 14 0 6 5
7 10 4 6 -3 10 -1 10 4 0 14 -27 14 -35 1z"/>
<path d="M541 48 c1 -17 3 -18 6 -5 2 9 9 17 15 17 5 0 8 -7 4 -15 -3 -8 -1
-15 5 -15 17 0 5 35 -14 38 -12 3 -17 -3 -16 -20z"/>
<path d="M640 60 c0 -5 7 -7 15 -4 8 4 15 8 15 10 0 2 -7 4 -15 4 -8 0 -15 -4
-15 -10z"/>
<path d="M2636 53 c-6 -15 -8 -15 -17 -3 -8 12 -10 11 -7 -4 4 -28 24 -31 31
-4 8 27 2 36 -7 11z"/>
<path d="M2660 50 c-9 -16 -8 -22 5 -26 9 -4 19 -4 22 0 4 3 1 6 -5 6 -7 0
-12 5 -12 11 0 5 5 7 10 4 6 -3 10 -2 10 4 0 20 -19 21 -30 1z"/>
<path d="M2763 63 c-15 -5 -18 -43 -3 -43 5 0 6 8 3 17 -5 12 -2 15 10 10 9
-3 17 -2 17 3 0 12 -13 18 -27 13z"/>
<path d="M2560 40 c0 -11 5 -20 10 -20 6 0 10 7 10 16 0 8 5 12 10 9 6 -3 10
-1 10 4 0 6 -9 11 -20 11 -13 0 -20 -7 -20 -20z"/>
<path d="M2700 40 c0 -13 7 -20 20 -20 14 0 20 6 19 23 -1 16 -2 18 -6 5 -2
-10 -9 -18 -15 -18 -5 0 -8 7 -4 15 3 8 1 15 -4 15 -6 0 -10 -9 -10 -20z"/>
<path d="M640 40 c-12 -8 -11 -10 8 -10 12 0 22 5 22 10 0 13 -11 13 -30 0z"/>
</g>
</svg>
