<?xml version="1.0" standalone="no"?>
<!DOCTYPE svg PUBLIC "-//W3C//DTD SVG 20010904//EN"
 "http://www.w3.org/TR/2001/REC-SVG-20010904/DTD/svg10.dtd">
<svg version="1.0" xmlns="http://www.w3.org/2000/svg"
 width="300.000000pt" height="124.000000pt" viewBox="0 0 300.000000 124.000000"
 preserveAspectRatio="xMidYMid meet">
<metadata>
Created by potrace 1.10, written by Peter Selinger 2001-2011
</metadata>
<g transform="translate(0.000000,124.000000) scale(0.100000,-0.100000)"
fill="#dc143c" stroke="none">
<path d="M2240 1184 c0 -21 3 -24 28 -18 43 10 45 20 7 31 -33 11 -35 10 -35
-13z"/>
<path d="M880 1181 c0 -12 1276 -13 1315 -2 18 6 -230 10 -642 10 -384 1 -673
-3 -673 -8z"/>
<path d="M2550 1047 c-194 -116 -205 -124 -208 -155 -2 -18 -7 -30 -12 -27 -5
3 -340 6 -744 5 l-735 0 -3 52 -3 53 -123 8 c-91 6 -127 5 -138 -4 -9 -7 -14
-32 -14 -73 l0 -61 -237 0 -238 0 -3 -187 -2 -188 -36 0 c-31 0 -35 -2 -24
-15 11 -13 58 -15 343 -13 253 2 331 6 335 16 2 8 -7 12 -30 12 l-33 0 3 50 4
50 80 0 c121 0 118 -3 118 150 l0 130 725 0 c638 0 724 -2 719 -15 -5 -13 -97
-15 -713 -18 l-706 -2 708 -3 c414 -1 707 -6 707 -11 0 -5 15 -5 35 1 19 6 32
15 29 20 -3 4 -9 6 -13 4 -4 -3 -13 0 -21 5 -12 7 -11 10 7 15 13 4 23 15 25
30 3 23 5 22 75 -24 39 -27 90 -56 112 -67 l41 -18 0 -278 c0 -153 -3 -280 -7
-282 -11 -7 -139 73 -185 115 l-38 34 0 219 c0 120 -2 220 -5 223 -3 3 -5 -88
-5 -202 l0 -206 -570 0 c-314 1 -574 -1 -578 -4 -4 -2 -5 69 -4 158 l4 163
-32 37 -32 36 -109 0 -108 0 -26 -34 -26 -34 -2 -244 -2 -243 165 0 165 0 -2
23 c-3 25 4 27 43 12 19 -8 29 -8 34 0 4 6 191 11 551 13 l544 2 -547 3 c-380
1 -548 5 -548 13 0 6 -9 8 -20 5 -11 -3 -28 -8 -37 -11 -15 -4 -18 3 -20 40
l-1 44 579 1 579 0 0 -24 c0 -27 68 -81 181 -145 l57 -31 206 122 205 123 1
306 0 305 -114 72 c-63 40 -116 72 -118 72 -1 0 -95 -56 -208 -123z m285 44
c22 -14 62 -37 89 -52 l49 -27 -24 -15 c-92 -59 -362 -217 -371 -217 -13 0
-156 85 -193 114 l-28 22 129 76 c71 42 160 92 198 111 76 39 71 39 151 -12z
m135 -259 c0 -88 3 -207 7 -265 4 -66 2 -107 -4 -107 -5 0 -9 31 -8 70 l1 70
-25 -17 c-59 -37 -66 -44 -66 -65 0 -12 -5 -23 -12 -25 -8 -3 -11 4 -8 18 2
12 1 19 -3 15 -9 -10 -10 -156 0 -156 13 0 18 18 6 22 -7 3 -5 7 6 11 10 4 15
3 11 -3 -10 -16 3 -12 45 16 22 15 43 25 46 22 6 -6 -85 -64 -123 -79 -13 -5
-75 -40 -138 -78 l-115 -70 0 268 c0 198 3 272 13 284 12 17 345 226 360 227
4 0 7 -71 7 -158z m-2142 106 c3 -16 -7 -18 -112 -18 -66 0 -117 4 -121 10
-15 25 10 31 118 28 97 -3 112 -5 115 -20z m2 -158 l0 -130 -90 0 -89 0 -3 98
c-3 96 -3 97 -28 97 -14 0 -25 6 -24 13 1 6 2 21 3 32 1 19 8 20 116 20 l115
0 0 -130z m-260 -76 l0 -116 30 -11 c26 -10 30 -16 30 -49 l0 -38 -260 0 -260
0 0 165 0 165 230 0 230 0 0 -116z m60 30 c0 -72 -2 -85 -16 -82 -12 2 -16 20
-17 86 -2 72 0 82 16 82 15 0 17 -11 17 -86z m513 -2 l27 -26 0 -233 0 -233
-150 0 -150 0 0 233 0 232 28 30 c28 30 29 30 123 27 85 -3 97 -6 122 -30z
m-513 -113 c0 -14 -5 -19 -17 -17 -26 5 -29 38 -4 38 15 0 21 -6 21 -21z m198
4 c-3 -15 -17 -18 -91 -21 -82 -3 -87 -2 -87 18 0 19 6 20 91 20 81 0 90 -2
87 -17z m2123 -50 c-11 -5 -11 -7 0 -14 12 -7 11 -9 -1 -9 -12 0 -12 -2 -2 -9
11 -7 10 -9 -3 -14 -9 -4 -14 -3 -11 1 2 4 -4 8 -14 8 -10 0 -18 -4 -17 -9 1
-5 -4 -12 -11 -14 -7 -3 -11 1 -10 9 3 15 58 57 73 57 6 0 4 -3 -4 -6z m-26
-97 c-1 -53 -4 -57 -47 -62 -24 -3 -29 -1 -18 6 8 5 15 15 15 21 0 7 5 14 12
16 8 3 11 -4 8 -18 -2 -12 -1 -19 3 -15 3 4 7 22 7 41 1 25 -2 32 -14 27 -11
-4 -12 -7 -2 -10 11 -4 11 -6 1 -12 -7 -5 -19 -6 -27 -3 -10 4 -4 13 19 29 18
13 35 23 39 24 3 0 5 -20 4 -44z m30 7 c0 -20 -5 -38 -11 -40 -6 -2 -10 12 -8
34 2 45 2 43 12 43 5 0 8 -17 7 -37z m-2557 -20 c-16 -2 -40 -2 -55 0 -16 2
-3 4 27 4 30 0 43 -2 28 -4z"/>
<path d="M690 940 c0 -5 9 -10 20 -10 11 0 20 5 20 10 0 6 -9 10 -20 10 -11 0
-20 -4 -20 -10z"/>
<path d="M900 645 l0 -35 120 0 120 0 0 35 0 35 -120 0 -120 0 0 -35z m228 -2
c-3 -16 -16 -18 -108 -18 -92 0 -105 2 -108 18 -3 15 7 17 108 17 101 0 111
-2 108 -17z"/>
<path d="M900 558 l0 -33 120 0 120 0 0 33 0 32 -120 0 -120 0 0 -32z m228 0
c3 -16 -7 -18 -107 -18 -105 0 -111 1 -111 20 0 20 5 21 107 18 93 -3 108 -5
111 -20z"/>
<path d="M972 458 c2 -19 8 -33 16 -32 6 1 44 2 82 3 l70 1 0 30 0 30 -86 0
-85 0 3 -32z m153 2 c0 -12 -16 -16 -72 -18 -40 -2 -73 -1 -73 2 0 30 15 37
79 34 51 -2 66 -6 66 -18z"/>
<path d="M907 473 c-13 -12 -7 -41 10 -47 9 -4 23 0 31 8 13 12 13 18 2 30
-13 17 -32 21 -43 9z m30 -29 c-9 -9 -28 6 -21 18 4 6 10 6 17 -1 6 -6 8 -13
4 -17z"/>
<path d="M1033 305 c0 -33 2 -45 4 -27 2 18 2 45 0 60 -2 15 -4 0 -4 -33z"/>
<path d="M1063 305 c0 -33 2 -45 4 -27 2 18 2 45 0 60 -2 15 -4 0 -4 -33z"/>
<path d="M973 300 c0 -30 2 -43 4 -27 2 15 2 39 0 55 -2 15 -4 2 -4 -28z"/>
<path d="M1003 300 c0 -30 2 -43 4 -27 2 15 2 39 0 55 -2 15 -4 2 -4 -28z"/>
<path d="M1093 300 c0 -25 2 -35 4 -22 2 12 2 32 0 45 -2 12 -4 2 -4 -23z"/>
<path d="M943 295 c0 -22 2 -30 4 -17 2 12 2 30 0 40 -3 9 -5 -1 -4 -23z"/>
<path d="M960 1130 c47 -4 265 -7 485 -8 220 -1 488 -4 595 -6 155 -4 173 -3
90 4 -58 4 -364 10 -680 12 -316 2 -537 1 -490 -2z"/>
<path d="M2240 1119 c0 -17 4 -20 23 -15 12 3 29 6 37 6 21 0 0 16 -32 24 -24
5 -28 3 -28 -15z"/>
<path d="M163 1103 c9 -2 25 -2 35 0 9 3 1 5 -18 5 -19 0 -27 -2 -17 -5z"/>
<path d="M318 1103 c12 -2 32 -2 45 0 12 2 2 4 -23 4 -25 0 -35 -2 -22 -4z"/>
<path d="M408 1103 c12 -2 30 -2 40 0 9 3 -1 5 -23 4 -22 0 -30 -2 -17 -4z"/>
<path d="M763 1103 c9 -2 25 -2 35 0 9 3 1 5 -18 5 -19 0 -27 -2 -17 -5z"/>
<path d="M2257 1084 c-4 -4 -7 -14 -7 -21 0 -11 8 -13 33 -8 49 11 51 19 7 30
-14 3 -29 3 -33 -1z"/>
<path d="M870 1070 c0 -6 252 -10 683 -9 426 0 671 4 652 10 -41 12 -1335 11
-1335 -1z"/>
<path d="M2270 1006 c0 -23 2 -24 35 -13 38 11 36 21 -7 31 -25 6 -28 3 -28
-18z"/>
<path d="M1222 1003 c192 -2 504 -2 695 0 192 1 35 2 -347 2 -382 0 -539 -1
-348 -2z"/>
<path d="M1407 953 c-4 -3 -7 -18 -7 -32 0 -21 2 -23 10 -11 9 13 10 13 11 0
1 -17 17 16 18 38 1 13 -21 17 -32 5z"/>
<path d="M1603 947 c3 -8 -1 -14 -9 -14 -8 0 -14 5 -15 11 0 6 -5 0 -11 -14
-10 -24 -10 -24 -18 -5 -8 20 -9 20 -9 -1 -1 -18 5 -21 40 -21 26 0 36 3 27 8
-10 7 -10 9 0 9 6 0 12 9 12 20 0 11 -5 20 -11 20 -6 0 -9 -6 -6 -13z"/>
<path d="M1646 953 c-10 -11 -7 -53 5 -53 5 0 7 5 4 10 -4 6 -2 17 5 25 11 13
-1 30 -14 18z"/>
<path d="M1451 931 c-12 -21 -5 -31 18 -31 13 0 13 2 3 9 -11 7 -11 9 2 14 10
4 16 1 16 -7 0 -15 24 -28 34 -19 9 9 7 53 -2 53 -4 0 -13 -5 -19 -11 -8 -8
-13 -8 -17 0 -10 16 -24 13 -35 -8z"/>
<path d="M1687 944 c-14 -14 -7 -44 11 -44 14 0 15 2 2 10 -13 8 -12 10 3 10
10 0 17 5 15 12 -5 14 -22 21 -31 12z"/>
<path d="M2370 811 c0 -24 9 -35 53 -64 61 -40 112 -67 127 -67 5 0 10 10 10
23 0 17 -11 30 -42 47 -24 12 -64 38 -91 56 -26 19 -49 34 -52 34 -3 0 -5 -13
-5 -29z m83 -33 c36 -24 73 -48 84 -54 22 -14 12 -28 -15 -20 -39 13 -142 86
-142 101 0 8 2 15 4 15 1 0 33 -19 69 -42z"/>
<path d="M2447 634 c-11 -11 -8 -52 4 -60 6 -3 18 1 27 10 13 12 14 21 6 33
-12 20 -27 26 -37 17z m31 -27 c2 -10 -3 -17 -12 -17 -10 0 -16 9 -16 21 0 24
23 21 28 -4z"/>
<path d="M2370 456 l0 -105 82 -50 c45 -28 88 -51 95 -51 10 0 13 24 13 98 l0
97 -63 37 c-34 21 -77 47 -94 59 l-33 21 0 -106z m133 9 c26 -15 47 -33 47
-41 0 -8 -3 -14 -7 -14 -17 0 -163 95 -163 105 0 23 13 24 44 1 17 -13 52 -36
79 -51z m-15 -39 c34 -21 62 -44 62 -52 0 -8 -3 -14 -6 -14 -11 0 -141 79
-153 94 -18 22 -4 41 17 23 10 -7 45 -31 80 -51z m-45 -19 c28 -19 64 -41 80
-51 15 -9 27 -23 27 -31 0 -20 -1 -20 -62 16 -81 48 -108 69 -108 85 0 19 3
18 63 -19z m29 -67 c49 -29 77 -51 78 -62 0 -23 0 -23 -62 13 -82 48 -108 69
-108 86 0 18 -4 19 92 -37z"/>
<path d="M1666 461 c-19 -21 -16 -52 6 -50 10 0 10 2 0 6 -10 4 -9 8 4 17 9 7
15 20 13 30 -4 17 -5 17 -23 -3z"/>
<path d="M1610 456 c0 -8 -3 -23 -7 -33 -6 -16 -5 -16 10 -4 14 11 17 11 18 0
1 -8 4 -3 8 11 5 14 6 28 4 33 -7 13 -33 7 -33 -7z"/>
<path d="M1700 446 c0 -8 -3 -23 -7 -33 -7 -17 -6 -17 19 -1 18 12 28 14 36 6
6 -6 15 -7 21 -4 16 11 13 46 -4 46 -8 0 -15 -5 -15 -12 0 -9 -3 -9 -12 0 -16
16 -38 15 -38 -2z"/>
<path d="M1791 433 c0 -27 1 -27 9 -5 5 12 12 22 16 22 3 0 4 -7 0 -15 -3 -8
-1 -15 4 -15 6 0 10 9 10 20 0 13 -7 20 -20 20 -15 0 -20 -6 -19 -27z"/>
<path d="M1845 451 c-3 -5 0 -13 6 -17 8 -4 7 -9 -2 -15 -10 -6 -10 -9 -2 -9
18 0 27 21 13 30 -10 6 -9 9 1 13 9 3 10 6 2 6 -6 1 -14 -3 -18 -8z"/>
<path d="M1886 444 c-8 -21 1 -34 22 -34 15 0 15 2 2 10 -10 6 -11 10 -2 10 6
0 12 7 12 15 0 20 -26 19 -34 -1z"/>
<path d="M1220 225 l-35 -13 28 -11 c41 -16 47 -14 47 14 0 14 -1 25 -2 24 -2
0 -19 -6 -38 -14z"/>
<path d="M1537 213 c150 -2 396 -2 545 0 150 1 28 2 -272 2 -300 0 -422 -1
-273 -2z"/>
<path d="M1190 158 l-25 -10 27 -8 c14 -4 31 -11 37 -15 7 -4 11 4 11 19 0 28
-11 31 -50 14z"/>
<path d="M1517 143 c150 -2 396 -2 545 0 150 1 28 2 -272 2 -300 0 -422 -1
-273 -2z"/>
<path d="M424 75 c0 -24 4 -35 14 -35 9 0 12 6 8 16 -3 9 -6 24 -6 35 0 35
-15 20 -16 -16z"/>
<path d="M474 75 c-1 -24 4 -35 14 -35 9 0 12 6 8 16 -3 9 -6 24 -6 35 0 35
-15 20 -16 -16z"/>
<path d="M370 76 c0 -25 25 -43 35 -26 4 6 -1 10 -9 10 -22 0 -20 27 2 33 13
4 11 5 -5 6 -18 1 -23 -4 -23 -23z"/>
<path d="M606 92 c-6 -11 12 -52 24 -52 14 0 13 17 -2 23 -10 4 -10 8 0 15 11
7 11 10 -2 15 -8 3 -17 3 -20 -1z"/>
<path d="M2464 88 c-4 -6 1 -17 10 -24 16 -12 16 -13 -1 -17 -14 -4 -14 -5 5
-6 24 -1 31 24 10 32 -10 4 -10 6 0 6 7 1 10 6 7 11 -8 13 -22 13 -31 -2z"/>
<path d="M510 71 c0 -22 17 -37 28 -26 4 4 1 10 -5 12 -7 3 -13 9 -13 14 0 4
7 5 17 2 11 -4 14 -3 9 5 -12 19 -36 14 -36 -7z"/>
<path d="M561 68 c0 -22 1 -22 8 -3 8 20 8 20 13 0 5 -18 6 -18 7 3 1 13 -5
22 -14 22 -9 0 -15 -9 -14 -22z"/>
<path d="M653 65 c0 -27 4 -30 27 -14 11 8 12 12 2 16 -6 2 -10 9 -6 14 3 5
-1 9 -9 9 -9 0 -14 -10 -14 -25z"/>
<path d="M1243 83 c-33 -6 -28 -16 12 -29 33 -10 35 -10 35 12 0 24 -4 25 -47
17z"/>
<path d="M2510 60 c0 -13 6 -20 18 -19 10 0 12 3 5 6 -7 2 -13 9 -13 14 0 4 7
5 17 2 11 -4 14 -3 9 5 -12 19 -36 14 -36 -8z"/>
<path d="M2557 60 c-3 -11 -1 -20 4 -20 5 0 9 7 9 16 0 8 5 12 10 9 6 -3 10
-1 10 4 0 19 -28 12 -33 -9z"/>
<path d="M2601 75 c0 -5 4 -17 9 -25 9 -13 11 -13 20 0 14 22 12 34 -4 21 -11
-9 -15 -9 -19 1 -3 7 -6 9 -6 3z"/>
<path d="M2650 59 c0 -11 7 -19 18 -19 14 0 15 2 2 10 -8 5 -12 12 -8 15 3 3
13 -1 21 -10 23 -23 47 -19 46 8 0 21 -1 21 -9 2 -6 -15 -9 -16 -9 -4 -1 11
-11 16 -31 17 -23 0 -30 -4 -30 -19z"/>
<path d="M2740 60 c0 -11 5 -20 10 -20 6 0 10 7 10 16 0 8 5 12 10 9 6 -3 10
-1 10 4 0 6 -9 11 -20 11 -13 0 -20 -7 -20 -20z"/>
<path d="M1567 63 c150 -2 396 -2 545 0 150 1 28 2 -272 2 -300 0 -422 -1
-273 -2z"/>
</g>
</svg>
