<?xml version="1.0" encoding="utf-8"?>
<!-- Generator: Adobe Illustrator 24.0.3, SVG Export Plug-In . SVG Version: 6.00 Build 0)  -->
<svg version="1.1" id="Calque_1" xmlns="http://www.w3.org/2000/svg" xmlns:xlink="http://www.w3.org/1999/xlink" x="0px" y="0px"
	 viewBox="0 0 950 600" style="enable-background:new 0 0 950 600;" xml:space="preserve">
<style type="text/css">
	.st0{fill:#1ABC9C;}
	.st1{fill:#F9F9F9;}
</style>
<rect class="st0" width="950" height="600"/>
<g>
	<path class="st1" d="M475,550c-137.85,0-250-112.15-250-250S337.15,50,475,50s250,112.15,250,250S612.85,550,475,550z M475,66.67
		c-128.66,0-233.33,104.68-233.33,233.33S346.34,533.33,475,533.33S708.33,428.66,708.33,300S603.66,66.67,475,66.67z"/>
	<path class="st1" d="M503.3,478.38c-11.33,0-21.98-6.82-26.4-17.87l-9.13-22.83c-0.48-1.17-0.87-2.4-1.18-3.65l-15.8-63.21
		c-0.21-0.83-0.51-1.63-0.89-2.4l-8.48-16.96c-2.48-4.96-7.95-7.44-13.34-6.14l-8.07,2.02c-8.56,2.13-17.77,0.13-24.64-5.38
		l-26.38-21.09c-6.77-5.43-10.66-13.52-10.66-22.18v-8.93c0-5.96,1.83-11.66,5.29-16.5l31.92-44.69c5.33-7.46,13.97-11.9,23.12-11.9
		h17.44c5.17,0,10.22,1.41,14.62,4.06l30.23,18.13l0,0c2.51,1.52,5.47,2.03,8.34,1.45l18.07-3.62c13.11-2.62,26.43,4.39,31.68,16.67
		l16.02,37.39c0.97,2.25,2.65,4.18,4.74,5.42l16.42,9.86c7.02,4.22,11.89,11.27,13.34,19.33c1.45,8.08-0.66,16.38-5.78,22.77
		l-14.58,18.23c-1.66,2.08-2.58,4.68-2.58,7.33v26.31c0,7.48-3.03,14.81-8.33,20.09l-9.03,9.03c-0.68,0.68-1.27,1.44-1.77,2.26
		l-19.91,33.18c-3.48,5.8-8.94,10.18-15.37,12.32C509.3,477.92,506.28,478.38,503.3,478.38z M431.03,328.29
		c10.55,0,20.37,5.88,25.29,15.73l8.48,16.96c0.93,1.85,1.65,3.81,2.15,5.82l15.8,63.21c0.12,0.51,0.29,1,0.48,1.48l9.14,22.86
		c2.31,5.75,8.71,8.73,14.62,6.77c2.65-0.89,4.91-2.7,6.36-5.11l19.9-33.17c1.19-1.97,2.62-3.82,4.27-5.46l9.04-9.05
		c2.19-2.18,3.44-5.21,3.44-8.3v-26.31c0-6.42,2.21-12.72,6.23-17.74l14.59-18.23c2.15-2.68,2.99-6.02,2.39-9.41
		c-0.61-3.38-2.57-6.23-5.52-7.99l-16.41-9.85c-5.14-3.08-9.12-7.63-11.49-13.16l-16.03-37.4c-2.18-5.07-7.68-7.96-13.09-6.89
		l-18.08,3.62c-6.95,1.41-14.12,0.14-20.19-3.5l-30.24-18.14c-1.83-1.1-3.91-1.68-6.04-1.68h-17.44c-3.78,0-7.35,1.84-9.55,4.92
		l-31.92,44.69c-1.43,2-2.19,4.36-2.19,6.82v8.92c0,3.58,1.61,6.92,4.41,9.17l26.37,21.08c2.84,2.27,6.66,3.12,10.19,2.23l8.06-2.01
		C426.37,328.58,428.72,328.29,431.03,328.29z"/>
	<path class="st1" d="M600,466.67c-2.2,0-4.32-0.87-5.89-2.44l-16.67-16.67c-1.97-1.97-2.83-4.79-2.27-7.52l8.33-41.67
		c0.33-1.61,1.12-3.09,2.27-4.26l25-25c2.18-2.18,5.38-2.98,8.31-2.08c2.94,0.88,5.15,3.32,5.75,6.34l8.33,41.67
		c0.41,2.03,0.04,4.14-1.03,5.92l-25,41.67c-1.32,2.2-3.58,3.67-6.12,3.98C600.67,466.64,600.33,466.67,600,466.67z M592.38,438.93
		l5.97,5.97l17.85-29.75l-4.65-23.24l-12.21,12.21L592.38,438.93z"/>
	<path class="st1" d="M691.63,281.52c-13.09,0-24.81-8.98-28.12-22.12c-1.96-7.77-4.41-14.43-7.27-19.81c-1.82-3.42-5.08-5.6-8.98-6
		c-4.26-0.43-8.41,1.31-11.17,4.64c-16.77,20.28-33.12,29.65-48.62,27.9c-18.78-2.15-27.9-19.97-28.28-20.72
		c-38.62-77.24-107.61-70.57-108.29-70.44c-0.31,0.03-0.61,0.05-0.92,0.05c-4.63,0-9.78,1.12-15.27,3.31
		c-18.42,7.37-38.77,1.84-50.64-13.74c-11.63-15.28-11.57-35.15,0.18-50.6l0.97-1.26c5.85-7.52,14.8-12.3,24.53-13.09
		c31.42-2.55,54.77-17.67,69.43-44.93c1.52-2.82,4.53-4.55,7.73-4.38c121.65,5.72,220.92,97.55,236.05,218.36
		c0.54,4.35-2.38,8.38-6.68,9.21c-6.74,1.31-13.76,2.45-20.86,3.39C694.16,281.43,692.88,281.52,691.63,281.52z M645.98,216.85
		c0.99,0,1.98,0.06,2.97,0.16c9.52,0.97,17.53,6.35,22,14.75c3.49,6.57,6.42,14.49,8.71,23.55c1.57,6.2,7.39,10.27,13.56,9.44
		c4.07-0.54,8.12-1.16,12.1-1.83C688.28,155.72,599.81,74.67,491.23,67.25c-12.8,21.37-36.71,45.45-80.11,48.98
		c-5.09,0.42-9.73,2.87-12.74,6.73l-0.83,1.07c-8.62,11.33-5.74,23.15-0.2,30.44c5.62,7.38,17.15,14,31.19,8.37
		c7.32-2.93,14.39-4.43,21.03-4.5c3.37-0.31,22.31-1.48,45.86,6.72c23.32,8.12,55.9,27.34,78.68,72.89
		c0.02,0.06,5.57,10.58,15.37,11.63c9.41,1.18,21.06-6.58,33.78-21.98C628.93,220.75,637.26,216.85,645.98,216.85z"/>
	<path class="st1" d="M254.92,283.33h-20.3c-2.36,0-4.61-1-6.18-2.75c-1.58-1.75-2.34-4.08-2.1-6.43
		c4.82-46.84,22.82-91.27,52.07-128.48c2.44-3.11,6.73-4.08,10.27-2.3l31.28,15.64c13.07,6.54,22.32,19.06,24.72,33.48l0.64,3.81
		c3.33,19.98-6.61,39.5-24.72,48.56l-16.3,8.15c-4.53,2.27-8.42,5.7-11.23,9.92C284.55,275.7,270.29,283.33,254.92,283.33z
		 M244.03,266.67h10.88c9.78,0,18.87-4.86,24.29-13c4.42-6.63,10.53-12.02,17.65-15.58l16.3-8.15
		c11.53-5.76,17.86-18.19,15.74-30.91l-0.64-3.81c0-0.01,0-0.01,0-0.01c-1.53-9.18-7.42-17.14-15.74-21.31l-25.12-12.56
		C264.36,192.46,249.49,228.58,244.03,266.67z"/>
	<path class="st1" d="M326.93,499.26c-1.82,0-3.62-0.59-5.12-1.75c-54.6-42.42-89.5-106.05-95.73-174.58
		c-0.33-3.6,1.7-6.99,5.02-8.42l8.73-3.74l0,0c17.46-7.48,37.42-3.63,50.85,9.8l15.44,15.44c4.13,4.13,9.35,6.93,15.08,8.08
		c21.52,4.31,37.12,23.35,37.12,45.29v2.31c0,12.56-3.67,24.71-10.64,35.14c-4.12,6.18-6.73,13.37-7.56,20.74l-4.92,44.28
		c-0.33,2.99-2.26,5.58-5.03,6.76C329.13,499.04,328.03,499.26,326.93,499.26z M243.31,327.41c6.67,56.66,34.31,109.31,77.05,147.23
		l3.21-28.93c1.12-10.02,4.66-19.75,10.25-28.15c5.13-7.69,7.84-16.64,7.84-25.89v-2.31c0-14.02-9.98-26.2-23.73-28.95
		c-8.98-1.79-17.14-6.16-23.6-12.63l-15.44-15.44c-8.59-8.57-21.34-11.04-32.5-6.27L243.31,327.41z"/>
</g>
</svg>
